<svg viewBox="0 0 1640 1224" fill="none" xmlns="http://www.w3.org/2000/svg">
<g filter="url(#filter0_d_0_3)">
<g clip-path="url(#clip0_0_3)">
<rect x="70" y="70" width="1440" height="1024" rx="30" fill="#D9EBFF"/>
<g filter="url(#filter1_d_0_3)">
<path d="M879.574 654.304C925.272 681.425 925.272 747.575 879.574 774.696L41.2268 1272.26C-5.43475 1299.95 -64.5 1266.32 -64.5 1212.06L-64.4999 216.938C-64.4999 162.677 -5.43482 129.048 41.2267 156.742L879.574 654.304Z" fill="white"/>
</g>
<g filter="url(#filter2_d_0_3)">
<path d="M1974.28 -467.007C2020.62 -493.022 2077.9 -459.947 2078.54 -406.811L2090.27 568C2090.92 622.257 2032.27 656.594 1985.28 629.464L1123.47 131.902C1076.48 104.772 1076.89 36.8052 1124.21 10.242L1974.28 -467.007Z" fill="white"/>
</g>
<path d="M437.547 439.238L437.369 501.677L226.299 531.056L226.477 468.617L437.547 439.238Z" fill="#4045A9"/>
<path d="M283.794 525.842L283.617 588.281L178.486 527.583L178.664 465.145L283.794 525.842Z" fill="#4045A9"/>
<path d="M401.042 487.661L400.865 550.099L330.306 591.103L330.483 528.665L401.042 487.661Z" fill="#4045A9"/>
<path d="M330.337 552.714L330.16 615.152L309.475 603.21L309.652 540.772L330.337 552.714Z" fill="#4045A9"/>
<path d="M340.613 546.743L340.437 609.181L330.16 615.152L330.337 552.714L340.613 546.743Z" fill="#4045A9"/>
<path d="M262.425 568.216L262.249 630.655L236.391 615.725L236.569 553.287L262.425 568.216Z" fill="#4045A9"/>
<path d="M309.652 540.772L309.475 603.21L262.249 630.655L262.425 568.216L309.652 540.772Z" fill="#4045A9"/>
<path d="M437.547 439.238L226.477 468.618L304.625 513.737L375.184 472.733L401.042 487.661L330.483 528.665L340.613 546.743L330.337 552.714L309.652 540.772L262.425 568.216L236.569 553.287L283.794 525.842L178.664 465.145L199.494 453.039L410.43 423.582L437.547 439.238Z" fill="#4A56CC"/>
<path d="M598.761 571.168L598.584 633.606C598.614 622.74 590.536 612.636 574.354 603.292C534.938 580.536 488.787 584.51 435.913 615.237C405.069 633.161 389.627 649.699 389.585 664.847L389.761 602.41C389.805 587.262 405.246 570.724 436.091 552.799C488.963 522.071 535.114 518.097 574.532 540.855C590.714 550.197 598.791 560.303 598.761 571.168Z" fill="#4045A9"/>
<path d="M634.123 575.593L633.947 638.032C633.893 657.355 615.604 677.63 579.084 698.853C512.145 737.753 450.378 740.874 393.809 708.213C367.127 692.81 353.811 676.798 353.858 660.182L354.035 597.744C353.988 614.361 367.304 630.371 393.986 645.775C450.555 678.436 512.321 675.316 579.26 636.416C615.783 615.192 634.069 594.917 634.123 575.593Z" fill="#4045A9"/>
<path d="M414.817 633.671C453.207 655.834 499.221 651.345 552.824 620.194C605.696 589.468 612.921 563.02 574.532 540.855C535.114 518.097 488.963 522.071 436.091 552.799C382.488 583.949 375.401 610.913 414.817 633.671ZM595.375 528.742C651.944 561.401 646.577 597.295 579.26 636.416C512.321 675.316 450.555 678.436 393.986 645.775C336.39 612.524 341.073 576.445 408.013 537.545C475.328 498.425 537.777 495.489 595.375 528.742Z" fill="#4A56CC"/>
<path d="M564.049 843.856L510.991 874.691C510.054 875.234 508.527 875.24 507.585 874.697L454.179 843.862C453.708 843.593 453.475 843.234 453.476 842.876L453.463 847.773C453.461 848.132 453.694 848.489 454.166 848.762L507.572 879.596C508.512 880.138 510.042 880.134 510.975 879.59L564.034 848.756C564.499 848.486 564.731 848.133 564.731 847.779L564.746 842.882C564.744 843.235 564.513 843.588 564.049 843.856Z" fill="#C93737"/>
<path d="M564.038 841.896C564.976 842.438 564.982 843.318 564.049 843.861L510.99 874.696C510.054 875.238 508.527 875.243 507.585 874.702L454.179 843.867C453.24 843.324 453.244 842.438 454.178 841.896L507.238 811.061C508.171 810.52 509.691 810.52 510.63 811.061L564.038 841.896Z" fill="#D93B3B"/>
<path d="M543.536 841.008L543.53 840.988C543.554 838.816 542.932 836.652 541.73 834.573L520.907 760.436L497.305 760.467L476.351 834.996C475.265 836.943 474.69 838.963 474.668 840.985L474.662 841.008H474.665C474.618 846.112 477.948 851.212 484.67 855.094C498.077 862.834 519.882 862.795 533.373 855.006C540.085 851.132 543.466 846.07 543.528 841.008H543.536Z" fill="#E83F3F"/>
<path d="M500.598 766.561C495.935 763.869 495.958 759.487 500.651 756.778C505.347 754.068 512.933 754.054 517.598 756.746C522.263 759.44 522.238 763.82 517.545 766.531C512.851 769.24 505.263 769.255 500.598 766.561Z" fill="#C93737"/>
<path d="M539.559 826.848L535.726 813.198C534.385 814.573 532.702 815.868 530.671 817.039C518.682 823.962 499.305 823.996 487.39 817.118C485.404 815.971 483.754 814.704 482.435 813.359L478.619 826.928C479.219 830.902 482.137 834.772 487.39 837.807C499.305 844.685 518.682 844.65 530.671 837.729C535.945 834.684 538.904 830.813 539.559 826.848Z" fill="#F2F2F2"/>
<path d="M526.556 780.547C516.078 784.801 502.089 784.847 491.625 780.669L486.531 798.788C486.82 798.969 487.084 799.16 487.39 799.338C499.305 806.217 518.683 806.181 530.671 799.26C531.014 799.061 531.314 798.847 531.638 798.643L526.556 780.547Z" fill="#F2F2F2"/>
<path d="M414.817 633.671C453.207 655.834 499.221 651.345 552.824 620.194C605.696 589.468 612.921 563.02 574.532 540.855C535.114 518.097 488.963 522.071 436.091 552.799C382.488 583.949 375.401 610.913 414.817 633.671ZM595.375 528.742C651.944 561.401 646.577 597.295 579.26 636.416C512.321 675.316 450.555 678.436 393.986 645.775C336.39 612.524 341.073 576.445 408.013 537.545C475.328 498.425 537.777 495.489 595.375 528.742Z" fill="#4A56CC"/>
<path d="M514.44 526.491L513.992 638.575C516.633 637.633 519.299 636.598 521.981 635.504L522.417 526.353C519.779 526.309 517.122 526.351 514.44 526.491Z" fill="#E2E2E2"/>
<path d="M522.417 526.353L522.498 506.12C519.849 505.958 517.189 505.886 514.522 505.86L514.44 526.491C517.122 526.351 519.779 526.309 522.417 526.353Z" fill="#E2E2E2"/>
<path d="M465.382 647.486C480.689 647.658 496.893 644.689 513.992 638.575L514.44 526.491C498.998 527.298 482.79 531.16 465.818 538.062L465.382 647.486Z" fill="#F2F2F2"/>
<path d="M514.44 526.491L514.522 505.86C498.641 505.698 482.44 507.913 465.92 512.505L465.818 538.062C482.79 531.16 498.999 527.298 514.44 526.491Z" fill="#F2F2F2"/>
<path d="M370.621 455.639L378.232 451.215C378.223 454.689 380.667 458.926 383.682 460.665L376.07 465.089C373.055 463.348 370.612 459.113 370.621 455.639Z" fill="#FDE169"/>
<path d="M370.645 447.387L378.257 442.962L378.232 451.215L370.621 455.639L370.645 447.387Z" fill="#FDE169"/>
<path d="M370.839 378.847L378.451 374.423L378.352 409.129L370.74 413.553L370.839 378.847Z" fill="#FDE169"/>
<path d="M417.582 489.056L425.194 484.632L455.397 502.069L447.786 506.493L417.582 489.056Z" fill="#FDE169"/>
<path d="M477.23 523.492L484.843 519.07L515.045 536.507L507.433 540.931L477.23 523.492Z" fill="#FDE169"/>
<path d="M536.877 557.93L544.489 553.506L574.692 570.945L567.081 575.369L536.877 557.93Z" fill="#FDE169"/>
<path d="M592.407 457.857L477.23 523.492L507.433 540.931L609.911 482.532L609.815 516.365L536.877 557.93L567.081 575.369L609.717 551.072L609.597 593.611C609.586 597.086 607.126 598.488 604.102 596.742L376.07 465.089C373.055 463.348 370.612 459.113 370.621 455.639L370.958 336.297C370.969 332.832 373.43 331.431 376.445 333.17L413.475 354.55L370.839 378.847L370.74 413.553L443.677 371.988L473.121 388.987L370.645 447.387L370.621 455.639C370.612 459.113 373.055 463.348 376.07 465.089L388.138 472.057L503.315 406.42L532.761 423.419L417.582 489.056L447.786 506.493L562.962 440.858L592.407 457.857Z" fill="#FDE169"/>
<path d="M376.07 465.089L383.682 460.665L395.75 467.633L388.138 472.057L376.07 465.089Z" fill="#FDE169"/>
<path d="M443.677 371.988L370.74 413.553L370.839 378.847L413.475 354.55L443.677 371.988Z" fill="#58595B"/>
<path d="M503.315 406.42L388.138 472.057L376.07 465.089C373.055 463.348 370.612 459.113 370.621 455.639L370.645 447.387L473.121 388.987L503.315 406.42Z" fill="#58595B"/>
<path d="M562.962 440.858L447.786 506.493L417.582 489.056L532.761 423.419L562.962 440.858Z" fill="#58595B"/>
<path d="M609.815 516.365L609.717 551.072L567.081 575.369L536.877 557.93L609.815 516.365Z" fill="#58595B"/>
<path d="M604.474 464.825C607.498 466.569 609.944 470.805 609.933 474.269L609.91 482.532L507.433 540.931L477.23 523.492L592.407 457.857L604.474 464.825Z" fill="#58595B"/>
<path d="M612.079 460.401L600.011 453.433L570.567 436.434L540.364 418.997L510.919 401.996L480.727 384.563L451.281 367.564L421.078 350.127L384.049 328.748C382.531 327.872 381.155 327.792 380.16 328.37L372.548 332.793C373.543 332.216 374.919 332.294 376.436 333.17L413.466 354.55L443.669 371.988L473.113 388.987L503.307 406.42L532.752 423.419L562.955 440.858L592.399 457.857L604.467 464.825C607.491 466.569 609.936 470.805 609.926 474.269L609.903 482.532L609.808 516.365L609.709 551.072L609.588 593.611C609.583 595.336 608.973 596.551 607.989 597.123L615.601 592.7C616.586 592.129 617.195 590.914 617.2 589.187L617.321 546.648L617.419 511.943L617.515 478.109L617.539 469.846C617.55 466.381 615.103 462.146 612.079 460.401Z" fill="#ECD262"/>
<path d="M579.653 564.268L397.239 458.953C396.107 458.298 395.409 457.089 395.409 455.78V368.819C395.409 366.001 398.46 364.238 400.901 365.649L583.315 470.964C584.448 471.617 585.147 472.826 585.147 474.135V561.097C585.147 563.915 582.094 565.677 579.653 564.268Z" fill="#E83F3F"/>
<path d="M419.04 413.946V393.246L422.841 395.442V416.139C422.841 422.615 425.649 427.474 431.263 430.716C436.878 433.958 439.687 432.342 439.687 425.866V405.169L443.487 407.361V428.06C443.487 436.893 439.413 438.957 431.263 434.252C423.115 429.546 419.04 422.778 419.04 413.946Z" fill="white"/>
<path d="M450.267 444.988V411.276L454.069 413.471L472.044 451.006V423.85L475.639 425.925V459.636L471.839 457.442L453.863 419.67V447.064L450.267 444.988Z" fill="white"/>
<path d="M493.308 466.301C500.499 470.452 504.094 467.781 504.094 458.289C504.094 450.023 500.499 443.813 493.308 439.663L486.426 435.689V462.327L493.308 466.301ZM482.625 463.669V429.957L493.308 436.125C503.033 441.74 507.895 449.859 507.895 460.483C507.895 472.334 503.033 475.452 493.308 469.837L482.625 463.669Z" fill="white"/>
<path d="M532.649 458.839V462.375L517.24 453.48V464.797L531.93 473.276V476.813L517.24 468.333V480.12L532.959 489.194V492.73L513.442 481.461V447.75L532.649 458.839Z" fill="white"/>
<path d="M538.71 496.05V462.339L551.243 469.575C556.831 472.801 559.625 477.11 559.625 482.5C559.625 486.885 556.891 488.553 551.428 487.503L561.514 509.216L556.502 506.322L547.154 485.767V482.915C552.77 485.135 555.578 484.281 555.578 480.352C555.578 477.24 554.016 474.782 550.893 472.979L542.51 468.14V498.245L538.71 496.05Z" fill="white"/>
<path d="M426.486 458.073C425.343 457.836 424.103 457.335 422.773 456.567C418.129 453.886 415.81 449.9 415.81 444.608C415.81 439.601 418.129 438.437 422.773 441.117C424.103 441.885 425.343 442.813 426.486 443.9V445.606C425.343 444.447 424.165 443.52 422.958 442.823C419.337 440.732 417.528 441.658 417.528 445.6C417.528 449.826 419.337 452.985 422.958 455.076C424.165 455.773 425.343 456.203 426.486 456.368V458.073Z" fill="white"/>
<path d="M435.521 462.328C438.691 464.159 440.275 463.018 440.275 458.904C440.275 454.848 438.691 451.906 435.521 450.076C432.285 448.206 430.665 449.3 430.665 453.356C430.665 457.469 432.285 460.46 435.521 462.328ZM428.855 452.374C428.855 447.211 431.077 445.911 435.521 448.477C439.898 451.005 442.086 454.85 442.086 460.013C442.086 465.149 439.898 466.454 435.521 463.927C431.077 461.36 428.855 457.51 428.855 452.374Z" fill="white"/>
<path d="M444.78 469.164V453.929L446.498 454.921L454.622 471.885V459.612L456.247 460.55V475.785L454.529 474.794L446.404 457.722V470.104L444.78 469.164Z" fill="white"/>
<path d="M459.218 476.969V475.157C460.611 476.529 462.115 477.682 463.73 478.616C466.015 479.934 467.158 479.634 467.158 477.717C467.158 476.082 466.315 474.779 464.632 473.808L462.923 472.82C460.143 471.216 458.753 469.028 458.753 466.259C458.753 463.347 460.534 462.918 464.092 464.972C465.641 465.868 467.079 466.91 468.41 468.105V469.916C467.079 468.58 465.641 467.465 464.092 466.571C461.679 465.178 460.471 465.404 460.471 467.251C460.471 468.884 461.288 470.174 462.923 471.116L464.632 472.102C467.461 473.735 468.876 475.938 468.876 478.708C468.876 481.691 467.161 482.193 463.73 480.212C462.115 479.281 460.611 478.199 459.218 476.969Z" fill="white"/>
<path d="M480.342 474.461V476.06L476.163 473.648V487.285L474.445 486.294V472.655L470.268 470.243V468.645L480.342 474.461Z" fill="white"/>
<path d="M482.386 490.877V475.64L488.049 478.911C490.575 480.369 491.837 482.317 491.837 484.752C491.837 486.735 490.602 487.488 488.132 487.014L492.691 496.827L490.425 495.519L486.201 486.23V484.94C488.74 485.944 490.008 485.558 490.008 483.782C490.008 482.376 489.302 481.265 487.89 480.45L484.102 478.263V491.868L482.386 490.877Z" fill="white"/>
<path d="M494.409 491.938V482.582L496.127 483.575V492.93C496.127 495.856 497.396 498.053 499.935 499.518C502.471 500.983 503.741 500.251 503.741 497.325V487.97L505.459 488.962V498.318C505.459 502.31 503.617 503.242 499.935 501.116C496.25 498.989 494.409 495.93 494.409 491.938Z" fill="white"/>
<path d="M518.551 511.225C517.407 510.99 516.168 510.488 514.837 509.719C510.194 507.039 507.872 503.054 507.872 497.762C507.872 492.754 510.194 491.589 514.837 494.271C516.168 495.039 517.407 495.966 518.551 497.054V498.759C517.407 497.6 516.231 496.672 515.024 495.975C511.401 493.885 509.592 494.81 509.592 498.753C509.592 502.98 511.401 506.139 515.024 508.229C516.231 508.926 517.407 509.357 518.551 509.52V511.225Z" fill="white"/>
<path d="M530.344 503.33V504.928L526.164 502.514V516.153L524.447 515.162V501.524L520.27 499.11V497.513L530.344 503.33Z" fill="white"/>
<path d="M534.383 505.661V520.899L532.664 519.906V504.669L534.383 505.661Z" fill="white"/>
<path d="M544.021 524.971C547.19 526.8 548.775 525.659 548.775 521.547C548.775 517.49 547.19 514.547 544.021 512.717C540.785 510.849 539.164 511.941 539.164 515.997C539.164 520.111 540.785 523.102 544.021 524.971ZM537.354 515.017C537.354 509.852 539.577 508.554 544.021 511.119C548.398 513.646 550.584 517.491 550.584 522.656C550.584 527.791 548.398 529.097 544.021 526.57C539.577 524.003 537.354 520.152 537.354 515.017Z" fill="white"/>
<path d="M553.28 531.807V516.57L554.995 517.562L563.122 534.527V522.253L564.746 523.192V538.428L563.028 537.436L554.904 520.365V532.745L553.28 531.807Z" fill="white"/>
<path d="M327.503 717.015L327.519 723.011L341.536 731.156L341.519 725.16L327.503 717.015Z" fill="#E8E8E8"/>
<path d="M344.605 735.452L344.588 729.454C344.584 727.898 343.561 726.348 341.519 725.16L341.535 731.156C343.578 732.344 344.6 733.896 344.605 735.452Z" fill="#E8E8E8"/>
<path d="M364.331 736.2L364.348 742.197L368.625 733.059L368.609 727.063L364.331 736.2Z" fill="#E8E8E8"/>
<path d="M329.724 749.512L329.742 755.508L345.532 753.062L345.516 747.065L329.724 749.512Z" fill="#E8E8E8"/>
<path d="M307.419 736.549L307.435 742.545L329.742 755.508L329.724 749.512L307.419 736.549Z" fill="#E8E8E8"/>
<path d="M345.516 747.065L345.532 753.062L402.363 786.087L402.347 780.091L345.516 747.065Z" fill="#E8E8E8"/>
<path d="M422.09 786.836L422.106 792.833C422.102 791.258 423.143 789.68 425.226 788.478C429.37 786.084 436.053 786.084 440.165 788.474L440.148 782.477C436.036 780.088 429.353 780.088 425.208 782.482C423.124 783.683 422.085 785.262 422.09 786.836Z" fill="#E8E8E8"/>
<path d="M454.166 790.624L454.182 796.62L459.276 785.739L459.259 779.742L454.166 790.624Z" fill="#E8E8E8"/>
<path d="M440.148 782.477L440.165 788.474L454.182 796.62L454.166 790.624L440.148 782.477Z" fill="#E8E8E8"/>
<path d="M398.069 789.23L398.086 795.226L420.391 808.188L420.375 802.191L398.069 789.23Z" fill="#E8E8E8"/>
<path d="M420.375 802.191L420.391 808.188L439.192 805.275L439.175 799.278L420.375 802.191Z" fill="#E8E8E8"/>
<path d="M312.514 725.669L307.419 736.549L329.724 749.512L345.516 747.065L402.347 780.091L398.069 789.23L420.375 802.191L439.175 799.278L425.159 791.131C421.047 788.742 421.068 784.871 425.208 782.482C429.353 780.088 436.036 780.088 440.148 782.477L454.166 790.624L459.259 779.742L436.953 766.779L421.162 769.228L364.331 736.2L368.609 727.063L346.303 714.1L327.503 717.015L341.519 725.16C345.631 727.551 345.61 731.422 341.464 733.814C337.325 736.203 330.642 736.203 326.53 733.814L312.514 725.669Z" fill="#F4F4F4"/>
<path d="M104.068 595.538L104.026 610.389L104 604.997L104.041 590.144L104.068 595.538Z" fill="#E2E2E2"/>
<path d="M104.099 600.927L104.056 615.779L104.026 610.389L104.068 595.538L104.099 600.927Z" fill="#E2E2E2"/>
<path d="M193.558 580.495L193.517 595.345C193.516 595.615 193.369 595.885 193.069 596.111L193.111 581.258C193.411 581.032 193.558 580.763 193.558 580.495Z" fill="#E8E8E8"/>
<path d="M200.581 600.927L200.538 615.778C200.541 616.414 199.731 616.955 198.64 617.035L198.682 602.183C199.772 602.103 200.584 601.563 200.581 600.927Z" fill="#E8E8E8"/>
<path d="M193.729 610.595L193.687 625.446C193.686 625.768 193.472 626.09 193.054 626.332L193.096 611.481C193.514 611.237 193.729 610.916 193.729 610.595Z" fill="#E8E8E8"/>
<path d="M110.85 595.329L110.892 580.478C110.892 580.751 111.044 581.026 111.354 581.26L111.312 596.111C111.003 595.879 110.85 595.603 110.85 595.329Z" fill="#E8E8E8"/>
<path d="M193.111 581.258L193.069 596.111L184.344 602.68L184.386 587.829L193.111 581.258Z" fill="#E8E8E8"/>
<path d="M120.145 587.829L120.102 602.682L111.312 596.111L111.354 581.26L120.145 587.829Z" fill="#E8E8E8"/>
<path d="M172.985 595.597L172.943 610.448C172.952 607.363 170.915 604.272 166.84 601.919C158.74 597.244 145.645 597.244 137.599 601.919C133.602 604.242 131.602 607.281 131.593 610.327L131.635 595.476C131.644 592.43 133.644 589.391 137.641 587.069C145.688 582.391 158.783 582.391 166.882 587.069C170.958 589.422 172.994 592.511 172.985 595.597Z" fill="#E8E8E8"/>
<path d="M106.011 602.183L105.968 617.035C105.476 616.998 105.036 616.866 104.703 616.673C104.305 616.445 104.058 616.126 104.056 615.779L104.098 600.927C104.1 601.276 104.345 601.592 104.745 601.822C105.077 602.015 105.517 602.145 106.011 602.183Z" fill="#E8E8E8"/>
<path d="M198.682 602.183L198.64 617.035L184.434 618.095L184.477 603.242L198.682 602.183Z" fill="#E8E8E8"/>
<path d="M120.236 603.242L120.193 618.095L105.968 617.035L106.011 602.183L120.236 603.242Z" fill="#E8E8E8"/>
<path d="M111.019 625.434L111.062 610.583C111.06 610.912 111.278 611.236 111.706 611.483L111.663 626.335C111.236 626.088 111.019 625.761 111.019 625.434Z" fill="#E8E8E8"/>
<path d="M193.096 611.481L193.054 626.332L186.489 630.147L186.531 615.296L193.096 611.481Z" fill="#E8E8E8"/>
<path d="M118.308 615.296L118.267 630.147L111.663 626.335L111.706 611.483L118.308 615.296Z" fill="#E8E8E8"/>
<path d="M186.531 615.296L186.489 630.147L179.929 633.959L179.971 619.108L186.531 615.296Z" fill="#E8E8E8"/>
<path d="M177.092 619.213L177.05 634.065L165.678 628.994L165.72 614.142L177.092 619.213Z" fill="#E8E8E8"/>
<path d="M124.913 619.108L124.87 633.959L118.267 630.147L118.308 615.296L124.913 619.108Z" fill="#E8E8E8"/>
<path d="M139.111 614.14L139.068 628.991L127.754 634.068L127.796 619.216L139.111 614.14Z" fill="#E8E8E8"/>
<path d="M179.971 619.108L179.929 633.959C179.154 634.409 177.926 634.454 177.05 634.065L177.092 619.213C177.968 619.604 179.197 619.558 179.971 619.108Z" fill="#E8E8E8"/>
<path d="M127.796 619.216L127.754 634.068C126.887 634.454 125.651 634.409 124.87 633.959L124.913 619.108C125.692 619.56 126.929 619.604 127.796 619.216Z" fill="#E8E8E8"/>
<path d="M165.72 614.142L165.678 628.994L163.893 637.229L163.935 622.376L165.72 614.142Z" fill="#E8E8E8"/>
<path d="M140.985 622.376L140.944 637.229L139.068 628.991L139.111 614.14L140.985 622.376Z" fill="#E8E8E8"/>
<path d="M163.935 622.376L163.893 637.229C163.757 637.86 162.832 638.329 161.734 638.33L161.776 623.478C162.873 623.478 163.799 623.008 163.935 622.376Z" fill="#E8E8E8"/>
<path d="M161.776 623.478L161.734 638.33L152.424 638.332L152.466 623.479L161.776 623.478Z" fill="#E8E8E8"/>
<path d="M152.466 623.479L152.424 638.332H143.118L143.159 623.479H152.466Z" fill="#E8E8E8"/>
<path d="M143.159 623.479L143.118 638.332C142.52 638.332 141.97 638.191 141.571 637.96C141.238 637.768 141.009 637.513 140.944 637.229L140.985 622.376C141.051 622.661 141.28 622.916 141.614 623.108C142.012 623.34 142.56 623.479 143.159 623.479Z" fill="#E8E8E8"/>
<path d="M137.74 604.004C145.839 608.68 158.93 608.683 166.978 604.006C175.024 599.329 174.982 591.744 166.882 587.069C158.783 582.391 145.688 582.391 137.641 587.069C129.593 591.746 129.64 599.327 137.74 604.004ZM193.268 609.813C193.943 610.319 193.869 611.031 193.096 611.481L186.532 615.296L179.971 619.108C179.197 619.558 177.968 619.604 177.093 619.213L165.72 614.142L163.936 622.376C163.799 623.008 162.873 623.478 161.777 623.478L152.466 623.479H143.159C142.561 623.479 142.012 623.34 141.614 623.108C141.28 622.916 141.052 622.661 140.985 622.376L139.111 614.14L127.796 619.216C126.93 619.604 125.692 619.56 124.913 619.108L118.309 615.296L111.706 611.483C110.927 611.034 110.845 610.318 111.515 609.816L120.236 603.242L106.011 602.183C105.517 602.145 105.077 602.015 104.746 601.822C104.346 601.592 104.1 601.275 104.099 600.927L104.068 595.538L104.041 590.144C104.038 589.509 104.847 588.971 105.936 588.891L120.145 587.829L111.354 581.26C110.679 580.754 110.753 580.042 111.527 579.592L118.087 575.78L124.651 571.963C125.425 571.515 126.654 571.469 127.529 571.859L138.902 576.93L140.683 568.698C140.82 568.066 141.747 567.594 142.846 567.594H152.151L161.463 567.592C162.06 567.592 162.608 567.733 163.005 567.962C163.34 568.154 163.567 568.41 163.632 568.698L165.511 576.931L176.83 571.859C177.694 571.469 178.927 571.516 179.706 571.966L186.309 575.778L192.913 579.592C193.692 580.042 193.777 580.755 193.112 581.258L184.386 587.829L198.607 588.89C199.104 588.928 199.546 589.059 199.879 589.252C200.278 589.481 200.522 589.797 200.525 590.144L200.551 595.538L200.581 600.927C200.584 601.563 199.772 602.103 198.683 602.183L184.477 603.242L193.268 609.813Z" fill="#F4F4F4"/>
<path d="M275.773 498.527L241.111 409.009C240.079 406.35 238.272 404.276 236.458 403.229C234.646 402.182 232.832 402.167 231.789 403.628L196.733 452.892C194.646 455.812 197.223 462.465 201.363 464.855L271.091 505.113C275.232 507.504 277.837 503.843 275.773 498.527Z" fill="#E83F3F"/>
<path d="M284.683 493.35L250.021 403.831C248.989 401.173 247.18 399.098 245.368 398.052C243.982 397.251 242.593 397.054 241.55 397.66L232.64 402.837C233.684 402.231 235.072 402.428 236.458 403.229C238.272 404.276 240.079 406.35 241.111 409.009L275.773 498.527C277.071 501.871 276.521 504.56 274.905 505.499L283.815 500.322C285.432 499.383 285.982 496.694 284.683 493.35Z" fill="#C93737"/>
<path d="M233.295 474.437L233.311 468.76L239.087 472.095L239.07 477.772L233.295 474.437Z" fill="white"/>
<path d="M233.419 430.571L239.194 433.904L239.102 466.416L233.326 463.083L233.419 430.571Z" fill="white"/>
<path d="M810.095 654.329L809.917 716.768L598.849 746.147L599.025 683.708L810.095 654.329Z" fill="#4045A9"/>
<path d="M656.342 740.933L656.165 803.372L551.034 742.673L551.211 680.236L656.342 740.933Z" fill="#4045A9"/>
<path d="M773.59 702.753L773.414 765.191L702.854 806.194L703.031 743.756L773.59 702.753Z" fill="#4045A9"/>
<path d="M702.887 767.805L702.71 830.243L682.023 818.3L682.2 755.861L702.887 767.805Z" fill="#4045A9"/>
<path d="M713.162 761.834L712.985 824.272L702.71 830.243L702.887 767.805L713.162 761.834Z" fill="#4045A9"/>
<path d="M634.975 783.307L634.797 845.746L608.939 830.816L609.117 768.378L634.975 783.307Z" fill="#4045A9"/>
<path d="M682.2 755.861L682.023 818.3L634.797 845.746L634.975 783.307L682.2 755.861Z" fill="#4045A9"/>
<path d="M810.095 654.329L599.025 683.708L677.173 728.828L747.732 687.823L773.59 702.753L703.031 743.756L713.162 761.834L702.887 767.805L682.2 755.861L634.975 783.307L609.117 768.378L656.342 740.933L551.211 680.236L572.042 668.13L782.978 638.674L810.095 654.329Z" fill="#4A56CC"/>
<path d="M277.425 713.437C254.794 726.504 217.986 726.437 195.214 713.291C172.441 700.141 172.326 678.892 194.957 665.826C217.588 652.76 254.394 652.826 277.167 665.974C299.94 679.122 300.055 700.371 277.425 713.437Z" fill="#ECD262"/>
<path d="M294.322 689.893H178.059V676.068H294.322V689.893Z" fill="#ECD262"/>
<path d="M277.425 699.062C254.794 712.128 217.986 712.062 195.214 698.914C172.441 685.767 172.326 664.515 194.957 651.451C217.588 638.385 254.394 638.451 277.167 651.599C299.94 664.747 300.055 685.998 277.425 699.062Z" fill="#FDE169"/>
<path d="M234.025 662.379V670.507L230.396 670.501L230.398 667.48L230.401 665.394L230.402 662.374L234.025 662.379Z" fill="white"/>
<path d="M238.232 684.913L235.029 686.751L233.657 685.958L235.258 685.039L232.055 683.192L230.454 684.108L224.681 680.777L226.281 679.857L223.08 678.009L221.478 678.927L216.212 675.888L219.416 674.05L238.232 684.913Z" fill="white"/>
<path d="M239.273 665.409L239.275 667.497L234.025 667.486L234.023 665.4L239.273 665.409Z" fill="white"/>
<path d="M244.43 676.515L249.679 676.525V678.613L244.43 678.603V676.515Z" fill="white"/>
<path d="M253.306 673.512L253.307 676.533L253.306 678.621V681.64L249.68 681.634L249.679 678.613V676.525V673.504L253.306 673.512Z" fill="white"/>
<path d="M225.152 665.386L230.401 665.394L230.399 667.48L225.148 667.471L225.152 665.386Z" fill="white"/>
<path d="M213.854 688.064C226.168 695.175 246.202 695.211 258.515 688.149C270.828 681.087 270.828 669.558 258.515 662.449C246.202 655.34 226.169 655.302 213.856 662.364C201.543 669.429 201.543 680.957 213.854 688.064ZM261.724 660.608C275.803 668.738 275.803 681.925 261.722 690.002C247.642 698.078 224.733 698.031 210.653 689.902C196.573 681.774 196.573 668.592 210.653 660.517C224.734 652.44 247.644 652.479 261.724 660.608Z" fill="white"/>
<path d="M235.258 685.039L233.657 685.958L231.085 687.433C227.728 689.358 222.266 689.348 218.907 687.41C215.55 685.471 215.55 682.327 218.907 680.403L221.478 678.927L223.08 678.009L226.281 679.857L224.681 680.777L222.11 682.249C220.519 683.163 220.519 684.654 222.11 685.574C223.701 686.49 226.292 686.496 227.884 685.584L230.454 684.108L232.055 683.192L235.258 685.039Z" fill="white"/>
<path d="M258.557 676.542V678.63L253.306 678.621L253.307 676.533L258.557 676.542Z" fill="white"/>
<path d="M715.874 628.227C717.585 629.215 719.254 629.979 720.869 630.53C719.007 631.614 717.145 632.694 715.283 633.776C713.668 633.226 711.997 632.461 710.288 631.474C711.964 630.5 714.199 629.202 715.874 628.227Z" fill="#E83F3F"/>
<path d="M691.142 585.39C691.096 601.11 702.193 620.329 715.874 628.227L710.288 631.474C696.607 623.575 685.512 604.357 685.556 588.635C685.579 580.826 688.347 575.325 692.802 572.734L698.389 569.489C693.933 572.078 691.163 577.58 691.142 585.39Z" fill="#E83F3F"/>
<path d="M699.27 614.128L704.856 610.881C707.953 615.261 711.77 619.008 715.894 621.39L710.308 624.635C706.185 622.255 702.369 618.507 699.27 614.128Z" fill="white"/>
<path d="M691.515 592.076L697.099 588.829C697.087 593.576 698.41 598.729 700.657 603.609L695.072 606.856C692.824 601.976 691.501 596.823 691.515 592.076Z" fill="white"/>
<path d="M729.301 622.691L723.716 625.937C720.285 627.93 715.538 627.655 710.308 624.635L715.894 621.39C721.125 624.409 725.872 624.684 729.301 622.691Z" fill="white"/>
<path d="M697.021 579.992L702.605 576.746C699.22 578.714 697.116 582.894 697.099 588.829L691.515 592.076C691.531 586.14 693.633 581.96 697.021 579.992Z" fill="white"/>
<path d="M720.869 630.53C725.754 632.198 730.127 631.915 733.52 629.943L727.936 633.189C724.542 635.16 720.169 635.445 715.283 633.776C717.145 632.694 719.007 631.614 720.869 630.53Z" fill="#E83F3F"/>
<path d="M697.021 579.992L702.605 576.746C706.037 574.752 710.785 575.028 716.017 578.051L710.431 581.296C705.197 578.275 700.449 577.998 697.021 579.992Z" fill="#E83F3F"/>
<path d="M692.802 572.736L698.389 569.489C702.902 566.866 709.152 567.229 716.035 571.204L710.45 574.449C703.566 570.475 697.317 570.112 692.802 572.736Z" fill="white"/>
<path d="M734.81 610.601C734.793 616.539 732.69 620.722 729.301 622.691L723.716 625.937C727.104 623.969 729.207 619.785 729.225 613.848C729.237 609.109 727.915 603.948 725.668 599.076L731.252 595.83C733.502 600.703 734.824 605.862 734.81 610.601Z" fill="#E83F3F"/>
<path d="M699.27 614.128L704.856 610.881L731.252 595.83L725.668 599.076L699.27 614.128Z" fill="#E83F3F"/>
<path d="M695.072 606.856L700.657 603.609L727.062 588.561L721.476 591.808L695.072 606.856Z" fill="white"/>
<path d="M716.017 578.051C720.139 580.431 723.957 584.17 727.062 588.561L721.476 591.808C718.37 587.417 714.555 583.676 710.431 581.296C712.106 580.322 714.341 579.023 716.017 578.051Z" fill="#E83F3F"/>
<path d="M733.52 629.943L727.936 633.189C732.393 630.599 735.161 625.097 735.183 617.289C735.226 601.568 724.131 582.348 710.45 574.449L716.035 571.204C729.718 579.102 740.813 598.321 740.769 614.042C740.746 621.85 737.979 627.352 733.52 629.943Z" fill="white"/>
<path d="M710.308 624.635C720.706 630.638 729.19 625.797 729.225 613.848C729.237 609.109 727.915 603.948 725.668 599.076L699.27 614.128C702.369 618.507 706.185 622.255 710.308 624.635ZM691.515 592.076C691.501 596.823 692.824 601.976 695.072 606.856L721.475 591.808C718.37 587.417 714.555 583.676 710.431 581.296C700.032 575.293 691.548 580.128 691.515 592.076ZM710.45 574.449C724.131 582.348 735.226 601.568 735.183 617.289C735.139 633.008 723.969 639.374 710.288 631.474C696.607 623.575 685.512 604.357 685.556 588.635C685.601 572.915 696.769 566.551 710.45 574.449Z" fill="white"/>
<path d="M699.27 614.128L725.668 599.076C727.915 603.948 729.237 609.109 729.225 613.848C729.19 625.797 720.706 630.638 710.308 624.635C706.185 622.255 702.369 618.507 699.27 614.128Z" fill="#E83F3F"/>
<path d="M710.431 581.296C714.555 583.676 718.37 587.417 721.476 591.808L695.072 606.856C692.824 601.976 691.501 596.823 691.515 592.076C691.548 580.128 700.033 575.293 710.431 581.296Z" fill="#E83F3F"/>
<path d="M710.288 631.474C723.969 639.374 735.139 633.008 735.183 617.289C735.226 601.568 724.131 582.348 710.45 574.449C696.769 566.551 685.601 572.915 685.556 588.635C685.512 604.357 696.607 623.575 710.288 631.474ZM742.49 578.207C745.596 579.999 748.105 584.344 748.096 587.914L747.887 661.452C747.876 665.018 745.35 666.459 742.244 664.665L678.249 627.717C675.143 625.925 672.634 621.579 672.644 618.01L672.853 544.472C672.862 540.904 675.388 539.465 678.493 541.257L742.49 578.207Z" fill="#E83F3F"/>
<path d="M748.076 574.96L684.08 538.011C682.515 537.11 681.1 537.025 680.077 537.619L674.493 540.866C675.514 540.272 676.93 540.355 678.493 541.257L742.49 578.207C745.596 579.999 748.105 584.344 748.096 587.914L747.887 661.45C747.882 663.224 747.256 664.471 746.247 665.058L751.832 661.811C752.841 661.226 753.468 659.978 753.471 658.205L753.68 584.667C753.691 581.099 751.182 576.754 748.076 574.96Z" fill="#C93737"/>
</g>
</g>
<defs>
<filter id="filter0_d_0_3" x="0" y="0" width="1640" height="1224" filterUnits="userSpaceOnUse" color-interpolation-filters="sRGB">
<feFlood flood-opacity="0" result="BackgroundImageFix"/>
<feColorMatrix in="SourceAlpha" type="matrix" values="0 0 0 0 0 0 0 0 0 0 0 0 0 0 0 0 0 0 127 0" result="hardAlpha"/>
<feOffset dx="30" dy="30"/>
<feGaussianBlur stdDeviation="50"/>
<feColorMatrix type="matrix" values="0 0 0 0 0 0 0 0 0 0 0 0 0 0 0 0 0 0 0.1 0"/>
<feBlend mode="normal" in2="BackgroundImageFix" result="effect1_dropShadow_0_3"/>
<feBlend mode="normal" in="SourceGraphic" in2="effect1_dropShadow_0_3" result="shape"/>
</filter>
<filter id="filter1_d_0_3" x="-109.5" y="101.831" width="1078.35" height="1235.34" filterUnits="userSpaceOnUse" color-interpolation-filters="sRGB">
<feFlood flood-opacity="0" result="BackgroundImageFix"/>
<feColorMatrix in="SourceAlpha" type="matrix" values="0 0 0 0 0 0 0 0 0 0 0 0 0 0 0 0 0 0 127 0" result="hardAlpha"/>
<feOffset dx="5" dy="5"/>
<feGaussianBlur stdDeviation="25"/>
<feColorMatrix type="matrix" values="0 0 0 0 0.501961 0 0 0 0 0.74902 0 0 0 0 1 0 0 0 0.5 0"/>
<feBlend mode="normal" in2="BackgroundImageFix" result="effect1_dropShadow_0_3"/>
<feBlend mode="normal" in="SourceGraphic" in2="effect1_dropShadow_0_3" result="shape"/>
</filter>
<filter id="filter2_d_0_3" x="1043.47" y="-521.067" width="1101.8" height="1215.02" filterUnits="userSpaceOnUse" color-interpolation-filters="sRGB">
<feFlood flood-opacity="0" result="BackgroundImageFix"/>
<feColorMatrix in="SourceAlpha" type="matrix" values="0 0 0 0 0 0 0 0 0 0 0 0 0 0 0 0 0 0 127 0" result="hardAlpha"/>
<feOffset dx="5" dy="5"/>
<feGaussianBlur stdDeviation="25"/>
<feColorMatrix type="matrix" values="0 0 0 0 0.501961 0 0 0 0 0.74902 0 0 0 0 1 0 0 0 0.5 0"/>
<feBlend mode="normal" in2="BackgroundImageFix" result="effect1_dropShadow_0_3"/>
<feBlend mode="normal" in="SourceGraphic" in2="effect1_dropShadow_0_3" result="shape"/>
</filter>
<clipPath id="clip0_0_3">
<rect x="70" y="70" width="1440" height="1024" rx="30" fill="white"/>
</clipPath>
</defs>
</svg>
