<svg viewBox="0 0 1024 1024" version="1.1" xmlns="http://www.w3.org/2000/svg">
    <path d="M1003.512218 960.667456a129.704613 129.704613 0 0 1-113.320873 63.316331h-755.188043a129.704613 129.704613 0 0 1-113.491536-63.316331 129.875277 129.875277 0 0 1-5.802575-129.704613L393.388545 74.92148A130.216605 130.216605 0 0 1 512.597324 1.023984c51.881845 0 95.99848 27.306234 119.123447 73.726832l377.679353 756.041363c21.332996 42.665991 19.199696 89.257253-5.802574 129.789945zM512.682656 841.373345a54.783133 54.783133 0 1 0 0-109.651597 54.783133 54.783133 0 0 0 0 109.651597zM594.772023 375.460722a82.174699 82.174699 0 1 0-164.43473 0v6.826558l54.868465 296.272643a27.391566 27.391566 0 0 0 54.6978 0l54.868465-296.187311v-6.826558z" fill="#E64550" />
</svg>