<svg viewBox="0 0 1024 1024" version="1.1" xmlns="http://www.w3.org/2000/svg">
    <path d="M873.711443 473.791045h-12.736319V109.532338c0-28.0199-22.925373-50.945274-50.945273-50.945273H185.950249c-28.0199 0-50.945274 22.925373-50.945274 50.945273v743.800995c0 28.0199 22.925373 50.945274 50.945274 50.945274h25.472637v12.736318c0 43.303483 33.114428 76.41791 76.41791 76.417911h585.870647c43.303483 0 76.41791-33.114428 76.41791-76.417911V550.208955c0-43.303483-35.661692-76.41791-76.41791-76.41791z m25.472637 445.771144c0 15.283582-10.189055 25.472637-25.472637 25.472637h-585.870647c-15.283582 0-25.472637-10.189055-25.472637-25.472637V657.19403c0-15.283582 10.189055-25.472637 25.472637-25.472637h234.348259l89.154229-96.79602c7.641791-7.641791 17.830846-12.736318 28.0199-12.736318h231.800995c15.283582 0 25.472637 10.189055 25.472637 25.472637v371.900497zM305.671642 229.253731h407.562189c15.283582 0 25.472637 10.189055 25.472637 25.472637s-10.189055 25.472637-25.472637 25.472637h-407.562189c-15.283582 0-25.472637-10.189055-25.472637-25.472637s12.736318-25.472637 25.472637-25.472637z m0 127.363184h292.935323c15.283582 0 25.472637 10.189055 25.472637 25.472637s-10.189055 25.472637-25.472637 25.472637H305.671642c-15.283582 0-25.472637-10.189055-25.472637-25.472637s12.736318-25.472637 25.472637-25.472637z" fill="#3FC375"/>
    <path d="M802.38806 830.40796h-114.626866c-15.283582 0-25.472637 10.189055-25.472637 25.472637s10.189055 25.472637 25.472637 25.472637h114.626866c15.283582 0 25.472637-10.189055 25.472637-25.472637s-10.189055-25.472637-25.472637-25.472637z" fill="#3FC375"/>
</svg>