<svg viewBox="0 0 1024 1024" version="1.1" xmlns="http://www.w3.org/2000/svg">
    <path d="M836.344686 511.970743c0 70.495086-22.396343 135.694629-60.372115 189.0304l98.538058 98.538057c62.478629-79.082057 99.854629-178.907429 99.854628-287.553829s-37.376-208.457143-99.854628-287.568457l-98.538058 98.538057a324.856686 324.856686 0 0 1 60.372115 189.015772zM509.937371 185.563429c70.4512 0 135.650743 22.396343 189.001143 60.372114l98.538057-98.538057A462.306743 462.306743 0 0 0 509.937371 47.542857a462.336 462.336 0 0 0-287.553828 99.854629l98.538057 98.538057a324.798171 324.798171 0 0 1 189.015771-60.372114zM509.937371 838.407314a324.798171 324.798171 0 0 1-189.015771-60.372114l-98.538057 98.567314a462.336 462.336 0 0 0 287.553828 99.854629 462.482286 462.482286 0 0 0 287.5392-99.854629l-98.538057-98.538057a325.002971 325.002971 0 0 1-189.001143 60.342857zM183.515429 511.970743c0-70.4512 22.396343-135.636114 60.372114-188.971886l-98.552686-98.552686C82.870857 303.528229 45.480229 403.3536 45.480229 512s37.390629 208.457143 99.869257 287.553829l98.538057-98.538058a324.900571 324.900571 0 0 1-60.372114-189.045028z" fill="#2EDFFF" />
    <path d="M620.426971 490.042514h116.911543c-10.357029-108.690286-96.782629-195.115886-205.472914-205.487543v116.911543a112.757029 112.757029 0 0 1 88.561371 88.576zM487.979886 401.466514v-116.911543c-108.675657 10.357029-195.115886 96.797257-205.472915 205.487543h116.911543a112.757029 112.757029 0 0 1 88.561372-88.576zM399.418514 533.942857h-116.911543c10.357029 108.690286 96.797257 195.115886 205.472915 205.487543v-116.9408a112.757029 112.757029 0 0 1-88.561372-88.546743zM531.8656 622.4896v116.911543c108.690286-10.3424 195.115886-96.797257 205.472914-205.458286h-116.911543a112.786286 112.786286 0 0 1-88.561371 88.546743z" fill="#F2AD11" />
    <path d="M509.922743 512m-65.389714 0a65.389714 65.389714 0 1 0 130.779428 0 65.389714 65.389714 0 1 0-130.779428 0Z" fill="#4CFFF6" />
</svg>