<svg viewBox="0 0 1024 1024" version="1.1" xmlns="http://www.w3.org/2000/svg">
    <path d="M1024 512c0-284.444444-227.555556-512-512-512S0 227.555556 0 512s227.555556 512 512 512 512-227.555556 512-512z" fill="#DEECC2" />
    <path d="M722.488889 620.088889c-17.066667 11.377778-39.822222 11.377778-56.888889-5.688889L512 432.355556l-153.6 182.044444c-11.377778 17.066667-39.822222 17.066667-56.888889 5.688889-17.066667-11.377778-22.755556-34.133333-11.377778-51.2l187.733334-216.177778 5.688889-5.688889s5.688889 0 5.688888-5.688889H512s5.688889 0 5.688889 5.688889c0 0 5.688889 0 5.688889 5.688889l187.733333 216.177778c28.444444 17.066667 28.444444 39.822222 11.377778 51.2z" fill="#86BC25" />
</svg>