<svg viewBox="0 0 1024 1024" version="1.1" xmlns="http://www.w3.org/2000/svg">
    <path d="M511.997292 0C229.228794 0 0.002708 229.226086 0.002708 512c0 282.768498 229.226086 512 511.994584 512s512-229.231502 512-512C1023.997292 229.226086 794.76579 0 511.997292 0zM402.913968 330.68912c0-60.193241 48.798011-109.294547 108.964172-109.294547s108.958756 49.106722 108.958756 109.294547v145.825356c0 60.43696-48.792595 109.278299-108.958756 109.278299-60.166161 0-108.964172-48.841339-108.964172-109.278299V330.68912z m308.516084 155.335823c0 101.316803-74.886804 184.815021-172.233691 198.002941v66.026255h90.571492c15.056434 0 27.350717 12.245539 27.350717 27.280309 0 15.051018-12.294283 27.350717-27.350717 27.350716H393.988428a27.415708 27.415708 0 0 1-27.350717-27.350716c0-15.029354 12.294283-27.280309 27.350717-27.280309h90.566076v-66.026255c-97.341471-13.18792-172.228275-96.686137-172.228276-198.002941v-0.335791c0-15.029354 12.294283-27.280309 27.301973-27.280309 15.056434 0 27.00951 12.250955 27.00951 27.280309 0 80.470683 65.083874 145.825356 145.240429 145.825356 80.161972 0 145.240429-65.349257 145.24043-145.825356 0-15.029354 11.958492-27.280309 27.00951-27.280309 15.00769 0 27.301973 12.250955 27.301972 27.280309v0.335791z" fill="#3CCA72" />
</svg>