<svg viewBox="0 0 1024 1024" version="1.1" xmlns="http://www.w3.org/2000/svg">
    <path class="f-bg" d="M0 0m146.285714 0l731.428572 0q146.285714 0 146.285714 146.285714l0 731.428572q0 146.285714-146.285714 146.285714l-731.428572 0q-146.285714 0-146.285714-146.285714l0-731.428572q0-146.285714 146.285714-146.285714Z" fill="#F0FAFE" />
    <path d="M803.269486 496.288914c-8.6016-153.629257-135.899429-275.543771-291.679086-275.543771-155.779657 0-283.062857 121.914514-291.693714 275.543771a108.251429 108.251429 0 0 0-0.468115 9.976686v151.946971c0 59.655314 48.800914 108.456229 108.456229 108.456229h38.838857a290.816 290.816 0 0 0 144.866743 38.4 290.816 290.816 0 0 0 144.866743-38.4h38.838857c59.655314 0 108.456229-48.800914 108.456229-108.456229V506.2656c0-3.364571-0.175543-6.685257-0.482743-9.976686" fill="#A5E8F0" />
    <path class="f-bg1" d="M456.762514 525.458286a62.976 62.976 0 1 1-125.952 0 62.976 62.976 0 0 1 125.952 0M692.370286 525.458286a62.976 62.976 0 1 1-125.952 0 62.976 62.976 0 0 1 125.952 0" fill="#EAF6FF" />
    <path d="M755.068343 514.208914v234.349715a108.573257 108.573257 0 0 0 48.683886-90.346058V506.2656a108.251429 108.251429 0 0 0-0.482743-9.976686c-8.323657-148.538514-127.5904-267.424914-276.289829-275.1488l-15.389257-0.394971S755.068343 290.962286 755.068343 514.194286" fill="#6DE8F0" />
</svg>