<svg viewBox="0 0 1024 1024" version="1.1" xmlns="http://www.w3.org/2000/svg">
    <path d="M307.2 787.217067c0-122.538667 98.4064-221.866667 219.818667-221.866667 121.412267 0 219.818667 99.328 219.818666 221.866667H307.2z m219.818667-249.617067c-91.101867 0-164.864-74.478933-164.864-166.4S435.9168 204.8 527.018667 204.8s164.864 74.478933 164.864 166.4-73.762133 166.4-164.864 166.4z" fill="#FF6100" />
    <path d="M189.883733 287.607467A390.724267 390.724267 0 0 0 119.466667 512c0 216.7808 175.752533 392.533333 392.533333 392.533333 83.456 0 160.802133-26.043733 224.392533-70.417066L189.917867 287.607467zM286.242133 190.805333l546.9184 546.9184A390.724267 390.724267 0 0 0 904.533333 512c0-216.7808-175.752533-392.533333-392.533333-392.533333-84.036267 0-161.928533 26.4192-225.757867 71.3728zM512 1006.933333C238.660267 1006.933333 17.066667 785.339733 17.066667 512S238.660267 17.066667 512 17.066667 1006.933333 238.660267 1006.933333 512 785.339733 1006.933333 512 1006.933333z" fill="#BFECD8" />
</svg>