<svg viewBox="0 0 1024 1024" version="1.1" xmlns="http://www.w3.org/2000/svg">
    <path d="M512 1024C229.376 1024 0 794.624 0 512S229.376 0 512 0s512 229.376 512 512-229.376 512-512 512z m53.76-442.368c-1.536-0.512-2.048-1.536-2.56-1.536v-22.528c2.048-2.048 4.096-3.584 6.144-5.632 6.144-6.144 11.776-13.312 17.408-20.992 1.536-2.048 3.584-5.12 5.12-7.168 0-0.512 0.512-0.512 0.512-1.536 1.536-2.048 2.56-4.096 3.584-6.144l0.512-1.536c1.536-2.048 2.56-4.096 3.584-7.168 0-0.512 0.512-0.512 0.512-1.536l4.096-8.192c16.896-5.632 29.696-22.528 32.768-34.304 7.68-26.112 0.512-34.816-11.264-37.888v-2.048c2.048-24.064 0-72.192 0-72.192 0-93.184-91.136-101.888-121.344-102.4H496.64c-60.416 1.536-80.896 0-87.552-3.584 0 9.728 2.048 18.944 6.144 27.136-20.48 15.36-36.352 39.936-36.352 78.848 0 0-2.048 47.616 0 72.192v2.048c-11.776 2.56-18.944 11.776-11.264 37.888 3.584 12.8 16.896 29.696 34.304 34.816 10.752 22.528 24.576 43.008 41.472 57.344v24.576c-0.512 0-4.096 2.048-9.728 6.144-34.304 20.992-70.656 39.424-108.544 54.784l-28.16 11.264c-21.504 9.216-38.4 26.624-46.08 48.64l-3.584 23.04c-6.144 18.432 7.68 37.376 27.136 37.376H583.68c-24.576-26.624-39.424-62.464-39.424-101.888 0-28.672 7.68-55.808 21.504-77.824z m122.88-43.52c-65.024 0-117.76 53.76-117.76 120.832s52.736 120.832 117.76 120.832 117.76-53.76 117.76-120.832-52.224-120.832-117.76-120.832zM599.04 657.92c0-51.2 40.448-93.184 90.624-93.184 18.944 0 36.352 6.144 51.2 16.384l-125.44 129.024c-10.752-14.336-16.384-32.768-16.384-52.224z m90.624 93.184c-20.992 0-40.448-7.68-56.32-20.48l126.976-130.56c11.776 16.384 19.456 35.84 19.456 57.344-0.512 52.224-40.448 93.696-90.112 93.696z" fill="#FF6100" />
</svg>