<svg viewBox="0 0 1024 1024" version="1.1" xmlns="http://www.w3.org/2000/svg">
    <path d="M682.65984 122.88a113.78688 113.78688 0 0 1 113.78688 113.78688l-0.02048 114.40128-50.4832 50.66752a170.65984 170.65984 0 0 0 0 241.00864l50.4832 50.64704v114.42176A113.78688 113.78688 0 0 1 682.68032 921.6H113.78688A113.78688 113.78688 0 0 1 0 807.81312V236.66688A113.78688 113.78688 0 0 1 113.78688 122.88h568.87296z m292.57728 126.2592A48.76288 48.76288 0 0 1 1024 297.8816v448.7168a48.76288 48.76288 0 0 1-83.29216 34.4064l-155.0336-155.46368a146.28864 146.28864 0 0 1 0-206.60224l155.0336-155.48416a48.76288 48.76288 0 0 1 34.52928-14.336z" fill="#5EBBFF" />
</svg>