<svg viewBox="0 0 1024 1024" version="1.1" xmlns="http://www.w3.org/2000/svg">
    <path d="M512 512m-512 0a512 512 0 1 0 1024 0 512 512 0 1 0-1024 0Z" fill="#54BEB6" fill-opacity=".497"/>
    <path d="M512 512m-369.7664 0a369.7664 369.7664 0 1 0 739.5328 0 369.7664 369.7664 0 1 0-739.5328 0Z" fill="#54BEB6"/>
    <path d="M440.32 332.8a17.408 17.408 0 0 1 13.4144 5.7856L524.8 409.6h172.8c11.52 0 19.2 7.68 19.2 19.2v230.4c0 11.52-7.68 19.2-19.2 19.2h-345.6c-11.52 0-19.2-7.68-19.2-19.2v-307.2c0-11.52 7.68-19.2 19.2-19.2H440.32z m-7.68 38.4h-61.44v268.8h307.2V448h-168.96l-76.8-76.8z" fill="#FFFFFF" />
    <path d="M678.4 352c11.52 0 19.2 7.68 19.2 19.2 0 9.6256-7.68 17.2544-17.3056 19.2H563.2c-11.52 0-19.2-7.68-19.2-19.2 0-9.6256 7.68-17.3056 17.3056-19.2h117.0944z" fill="#FFFFFF" />
</svg>