<svg viewBox="0 0 1024 1024" version="1.1" xmlns="http://www.w3.org/2000/svg">
    <path d="M186.954357 0h650.091286C956.016598 0 1019.751037 63.73444 1019.751037 186.954357v650.091286c0 123.219917-63.73444 186.954357-186.954357 186.954357H186.954357C59.485477 1019.751037 0 956.016598 0 832.79668V186.954357C0 63.73444 59.485477 0 186.954357 0z m0 0" fill="#3689F5" />
    <path d="M522.622407 212.448133H509.875519c-165.709544 0-297.427386 131.717842-297.427386 297.427386v12.746888C220.946058 679.834025 348.414938 807.302905 509.875519 807.302905h12.746888c152.962656-8.497925 276.182573-131.717842 284.680498-284.680498V509.875519c0-161.460581-127.46888-288.929461-284.680498-297.427386z m-8.497926 556.614108c-33.991701 0-67.983402-38.240664-89.228215-97.726141l4.248962-4.248963c59.485477 8.497925 118.970954 8.497925 174.207469 0l4.248963 4.248963c-21.244813 55.236515-55.236515 93.477178-84.979253 93.477178h-8.497926z m4.248963-518.373444c33.991701 4.248963 67.983402 42.489627 89.228216 101.975103-4.248963 4.248963-8.497925 8.497925-8.497926 12.746888-29.742739-4.248963-59.485477-8.497925-89.228215-8.497925-25.493776 0-55.236515 0-80.730291 4.248963l-8.497925-8.497926c21.244813-63.73444 55.236515-101.975104 93.477178-101.975103h4.248963z m-118.970954 195.452282c21.244813-4.248963 38.240664-25.493776 38.240664-46.738589 21.244813-4.248963 46.738589-4.248963 67.983402-4.248963 25.493776 0 55.236515 0 80.73029 4.248963l4.248963 12.746888-186.954357 169.958506h-4.248962c-4.248963-25.493776-4.248963-46.738589-4.248963-72.232365 0-21.244813 0-42.489627 4.248963-63.73444z m212.448132 4.248962l8.497926-8.497925c4.248963 0 8.497925 4.248963 12.746888 4.248963 4.248963 21.244813 4.248963 42.489627 4.248962 59.485477 0 25.493776-4.248963 50.987552-4.248962 72.232365-25.493776 4.248963-42.489627 25.493776-42.489627 46.738589-25.493776 4.248963-55.236515 8.497925-80.73029 4.248963-21.244813 0-46.738589 0-67.983403-4.248963 0-8.497925 0-12.746888-4.248962-21.244813l174.207468-152.962656zM344.165975 424.896266c4.248963 8.497925 12.746888 12.746888 16.995851 16.99585-4.248963 21.244813-4.248963 46.738589-4.248963 67.983403 0 25.493776 0 50.987552 4.248963 76.481327-8.497925 4.248963-16.995851 12.746888-21.244814 21.244814-55.236515-21.244813-84.979253-50.987552-89.228215-84.979253v-8.497926c4.248963-33.991701 33.991701-67.983402 93.477178-89.228215z m339.917013 178.456431c-4.248963-4.248963-8.497925-12.746888-16.995851-12.746888 4.248963-25.493776 8.497925-50.987552 8.497925-76.481328 0-25.493776 0-46.738589-4.248962-67.983402l12.746888-12.746888c50.987552 21.244813 84.979253 55.236515 84.979253 84.979253v8.497925c-4.248963 25.493776-33.991701 50.987552-84.979253 76.481328z m8.497925-212.448133c0-25.493776-21.244813-46.738589-46.738589-50.987552-8.497925-25.493776-21.244813-46.738589-33.991702-67.983402 63.73444 29.742739 114.721992 80.73029 140.215768 148.713693-16.995851-12.746888-38.240664-25.493776-59.485477-29.742739zM420.647303 267.684647c-16.995851 21.244813-29.742739 46.738589-38.240664 76.481328-25.493776 0-46.738589 16.995851-50.987552 42.489627-21.244813 8.497925-46.738589 16.995851-63.73444 33.991701 25.493776-72.232365 80.73029-127.46888 152.962656-152.962656z m-84.979253 378.157677c4.248963 25.493776 25.493776 38.240664 50.987552 38.240664 8.497925 25.493776 21.244813 46.738589 38.240664 67.983402-67.983402-21.244813-118.970954-72.232365-148.713693-135.966805 16.995851 8.497925 38.240664 21.244813 59.485477 29.742739z m276.182572 97.726141c12.746888-16.995851 21.244813-38.240664 29.742739-59.485477 25.493776 0 42.489627-16.995851 50.987552-42.489627l50.987552-25.493776c-25.493776 59.485477-72.232365 101.975104-131.717843 127.46888z m0 0" fill="#FFFFFF" />
    <path d="M352.6639 395.153527c0 16.995851 12.746888 29.742739 29.742739 29.742739 16.995851 0 29.742739-12.746888 29.742739-29.742739 0-16.995851-12.746888-29.742739-29.742739-29.742739-16.995851-4.248963-29.742739 8.497925-29.742739 29.742739z m0 0M607.60166 395.153527c0 16.995851 12.746888 29.742739 29.742738 29.742739 16.995851 0 29.742739-12.746888 29.742739-29.742739 0-16.995851-12.746888-29.742739-29.742739-29.742739-16.995851-4.248963-29.742739 8.497925-29.742738 29.742739z m0 0M611.850622 633.095436c0 16.995851 12.746888 29.742739 29.742739 29.742738 16.995851 0 29.742739-12.746888 29.742739-29.742738 0-16.995851-12.746888-29.742739-29.742739-29.742739-16.995851 0-29.742739 12.746888-29.742739 29.742739z m0 0M352.6639 633.095436c0 16.995851 12.746888 29.742739 29.742739 29.742738 16.995851 0 29.742739-12.746888 29.742739-29.742738 0-16.995851-12.746888-29.742739-29.742739-29.742739-16.995851-4.248963-29.742739 12.746888-29.742739 29.742739z m0 0" fill="#3689F5" />
</svg>