<svg viewBox="0 0 1024 1024" version="1.1" xmlns="http://www.w3.org/2000/svg">
    <path d="M155.085 507.34v7.015a26.931 26.931 0 0 0 26.931 26.983h31.846V816.23a86.58 86.58 0 0 0 86.426 86.528h480.307a86.528 86.528 0 0 0 86.375-86.528V515.738s39.27-1.383 58.777-1.383v-7.014z" fill="#FFDE73" />
    <path d="M880.998 319.18h-234.7V206.132a56.32 56.32 0 0 0-56.32-56.32h-99.38a56.32 56.32 0 0 0-56.064 56.32v113.05H235.52a80.794 80.794 0 0 0-80.435 80.742v107.52h770.662v-107.52c0-44.493-0.307-80.742-44.749-80.742zM402.842 655.82a35.84 35.84 0 0 0-35.84 35.84v154.522a35.84 35.84 0 0 0 71.68 0V691.661a35.84 35.84 0 0 0-35.84-35.84z m229.734 0a35.84 35.84 0 0 0-35.84 35.84v154.522a35.84 35.84 0 0 0 71.68 0V691.661a35.84 35.84 0 0 0-35.84-35.84z" fill="#8CECFF" />
    <path d="M872.755 282.163h-244.48V139.571a57.651 57.651 0 0 0-57.549-57.651H452.66a57.651 57.651 0 0 0-57.549 57.651v142.592H150.63A87.04 87.04 0 0 0 63.95 368.64v135.578A23.04 23.04 0 0 0 87.04 527.36h46.592v310.118a90.982 90.982 0 0 0 90.88 90.778H798.72a91.034 91.034 0 0 0 90.931-90.88V527.36h46.592a22.989 22.989 0 0 0 23.04-23.04V368.64a86.733 86.733 0 0 0-86.528-86.477z m-29.081 555.213a44.851 44.851 0 0 1-44.954 44.8H646.656V675.84a23.04 23.04 0 0 0-46.08 0v206.336H418.867V675.84a23.04 23.04 0 0 0-46.08 0v206.336h-148.48a44.851 44.851 0 0 1-44.8-44.8V527.36h664.167z m69.632-356.096h-41.83a24.218 24.218 0 0 0-4.762-0.512H156.672a24.218 24.218 0 0 0-4.762 0.512H110.03V368.64a40.602 40.602 0 0 1 40.601-40.55h267.52a23.091 23.091 0 0 0 23.04-23.04V139.57A11.469 11.469 0 0 1 452.66 128h118.066a11.52 11.52 0 0 1 11.47 11.52v165.683a23.04 23.04 0 0 0 23.04 23.04h267.52a40.602 40.602 0 0 1 40.55 40.397z" fill="#474747" />
</svg>