<svg viewBox="0 0 1024 1024" version="1.1" xmlns="http://www.w3.org/2000/svg">
    <path d="M247.893333 469.333333h128a85.333333 85.333333 0 0 1 85.333334 85.333334v298.666666h-298.666667v-298.666666a85.333333 85.333333 0 0 1 85.333333-85.333334z" fill="#88C4FF" />
    <path d="M375.893333 170.666667h298.666667a85.333333 85.333333 0 0 1 85.333333 85.333333v597.333333h-469.333333V256a85.333333 85.333333 0 0 1 85.333333-85.333333z" fill="#88C4FF" />
    <path d="M429.568 564.906667a32.384 32.384 0 0 1-32.768-32c0-17.664 14.634667-32 32.768-32h190.464c18.133333 0 32.768 14.336 32.768 32a32.426667 32.426667 0 0 1-32.768 32h-190.464zM429.568 394.24a32.384 32.384 0 0 1-32.768-32c0-17.664 14.634667-32 32.768-32h190.464c18.133333 0 32.768 14.336 32.768 32a32.426667 32.426667 0 0 1-32.768 32h-190.464z" fill="#FFFFFF" />
    <path d="M882.048 767.061333a67.498667 67.498667 0 0 1 24.917333-92.074666l-34.773333-60.202667a66.645333 66.645333 0 0 1-33.792 9.130667c-37.162667 0-67.285333-30.293333-67.285333-67.712h-69.546667c0.085333 11.52-2.773333 23.253333-8.96 33.962666a67.498667 67.498667 0 0 1-92.202667 24.448l-34.773333 60.202667c9.984 5.717333 18.688 14.037333 24.832 24.746667a67.498667 67.498667 0 0 1-24.746667 91.946666l34.730667 60.245334c9.898667-5.802667 21.418667-9.088 33.664-9.088 37.034667 0 67.072 30.122667 67.285333 67.370666h69.546667c-0.042667-11.434667 2.816-23.04 8.96-33.621333a67.498667 67.498667 0 0 1 92.032-24.533333l34.773333-60.202667a66.645333 66.645333 0 0 1-24.661333-24.618667z m-145.749333 27.733334a61.696 61.696 0 1 1 0-123.392 61.696 61.696 0 0 1 0 123.434666z" fill="#88C4FF" />
    <path d="M759.893333 556.202667v119.893333a61.696 61.696 0 1 0 0 114.048V853.333333l-89.6-0.042666a66.645333 66.645333 0 0 0-69.845333-1.536l-34.773333-60.245334a67.498667 67.498667 0 0 0 24.789333-91.989333 66.645333 66.645333 0 0 0-24.832-24.704l34.773333-60.202667c32.384 18.645333 73.642667 7.68 92.16-24.448 6.229333-10.666667 9.088-22.4 9.002667-33.962666h58.325333z" fill="#2D7CE7" />
</svg>