<svg viewBox="0 0 1024 1024" version="1.1" xmlns="http://www.w3.org/2000/svg">
    <path d="M512 512m-512 0a512 512 0 1 0 1024 0 512 512 0 1 0-1024 0Z" fill="#DBDBDB" />
    <path d="M349.090909 488.727273h325.818182a139.636364 139.636364 0 0 0 0-279.272728H349.090909a139.636364 139.636364 0 0 0 0 279.272728z m0-232.727273h325.818182a93.090909 93.090909 0 0 1 0 186.181818H349.090909a93.090909 93.090909 0 0 1 0-186.181818z" fill="#8E8E8E" />
    <path d="M349.090909 349.090909m-69.818182 0a69.818182 69.818182 0 1 0 139.636364 0 69.818182 69.818182 0 1 0-139.636364 0Z" fill="#8E8E8E" />
    <path d="M674.909091 535.272727H349.090909a139.636364 139.636364 0 0 0 0 279.272728h325.818182a139.636364 139.636364 0 0 0 0-279.272728z m0 209.454546a69.818182 69.818182 0 1 1 69.818182-69.818182 69.818182 69.818182 0 0 1-69.818182 69.818182z" fill="#8E8E8E" />
</svg>