<svg viewBox="0 0 1024 1024" version="1.1" xmlns="http://www.w3.org/2000/svg">
    <path d="M512 0c282.763636 0 512 229.236364 512 512s-229.236364 512-512 512S0 794.763636 0 512 229.236364 0 512 0z" fill="#FF5252" />
    <path d="M748.055273 370.920727h-33.256728v376.715637a20.154182 20.154182 0 0 1-19.944727 20.363636H329.146182a20.154182 20.154182 0 0 1-19.944727-20.363636V370.920727h-33.256728a20.200727 20.200727 0 0 1-19.944727-20.363636c0-11.217455 8.96-20.340364 19.944727-20.340364h135.842909l0.325819-53.899636c0-11.194182 8.936727-20.317091 19.944727-20.317091h160.605091c11.008 0 19.968 9.122909 19.968 20.340364l-0.349091 53.876363h135.773091c10.984727 0 19.944727 9.122909 19.944727 20.340364a20.200727 20.200727 0 0 1-19.944727 20.363636zM451.956364 296.704l-0.256 33.512727h120.692363l0.279273-33.512727H451.956364zM674.909091 370.920727H349.090909v356.375273h325.818182V370.920727zM414.440727 425.658182c11.008 0 19.944727 9.122909 19.944728 20.363636v206.987637a20.177455 20.177455 0 0 1-19.944728 20.363636 20.177455 20.177455 0 0 1-19.944727-20.363636v-206.987637c0-11.240727 8.936727-20.363636 19.944727-20.363636z m94.394182 0c11.008 0 19.968 9.122909 19.968 20.363636v206.987637a20.200727 20.200727 0 0 1-19.968 20.363636 20.200727 20.200727 0 0 1-19.944727-20.363636v-206.987637c0-11.240727 8.96-20.363636 19.944727-20.363636z m94.417455 0c10.984727 0 19.944727 9.122909 19.944727 20.363636v206.987637a20.200727 20.200727 0 0 1-19.944727 20.363636 20.200727 20.200727 0 0 1-19.968-20.363636v-206.987637c0-11.240727 8.96-20.363636 19.968-20.363636z" fill="#FFFFFF" />
</svg>