<svg viewBox="0 0 1024 1024" version="1.1" xmlns="http://www.w3.org/2000/svg">
    <path d="M512 80C273.5 80 80 273.5 80 512s193.5 432 432 432 432-193.5 432-432S750.5 80 512 80z" fill="#53BD00"/>
    <path d="M642.68 313.82c90.72 90.9 90.72 238.14 0 329.04s-237.96 90.9-328.68 0-90.72-238.14 0-329.04 237.96-90.9 328.68 0z" fill="#FFFFFF" />
    <path d="M769.04 769.4c-11.88 11.88-30.96 11.88-42.84 0l-110.16-110.16c-11.88-11.88-11.88-30.96 0-42.84 11.88-11.88 30.96-11.88 42.84 0l110.16 110.16c11.88 11.88 11.88 30.96 0 42.84z" fill="#FFFFFF" />
    <path d="M525.5 567.08c-9.9 0-19.08-5.22-24.3-13.68l-66.42-109.08-25.74 39.06c-5.22 8.1-14.22 12.78-23.76 12.78h-66.6c-10.98 0-19.8-8.82-19.8-19.8s8.82-19.8 19.8-19.8h60.66l32.04-48.96c5.4-8.28 14.4-12.96 24.3-12.78 9.9 0.18 18.72 5.22 23.76 13.68L524.6 515.6l18.36-37.44c4.86-9.72 14.58-15.84 25.56-15.84h70.38c10.98 0 19.8 8.82 19.8 19.8s-8.82 19.8-19.8 19.8h-63.36l-24.3 49.5c-4.5 9.36-13.86 15.48-24.3 15.84-0.54-0.18-0.9-0.18-1.44-0.18z" fill="#53BD00" />
</svg>