<svg viewBox="0 0 1024 1024" version="1.1" xmlns="http://www.w3.org/2000/svg">
    <path d="M512 512m-512 0a512 512 0 1 0 1024 0 512 512 0 1 0-1024 0Z" fill="#FFC310" />
    <path d="M284.44 298.67l455.11 0 0 469.33-455.11 0 0-469.33Z" fill="#FEE8AD" />
    <path d="M455.11 469.33l-56.9 156.45 142.23-56.89-85.33-99.56z" fill="#FFFFFF" />
    <path d="M738.32 270.22c-22.57-20.58-56.69-28.44-56.69-28.44L469.07 455.11v28.44l85 71.11 212.59-227.55c9.58-21.81-28.34-56.89-28.34-56.89z" fill="#FF7F01" />
    <path d="M360.74 664.86l172.44-66.72L764.32 358c23.86-24.79 23.86-65.14 0-89.93l-21-21.85a59.59 59.59 0 0 0-86.55 0L425.61 486.36z m319.6-394.74a27.31 27.31 0 0 1 39.62 0L741 292a30 30 0 0 1 0 41.19L720.89 354l-60.64-63z m-43.56 45.24l60.66 63L542.6 539.3l-60.65-63zM458.5 500.65l60.64 63L515 568l-97.28 37.64 36.57-100.6z m266.83 196.24c0 30.09-13.71 56.89-42.67 56.89H341.33c-29 0-42.67-26.8-42.67-56.89V369.78c0-30.1 13.71-56.89 42.67-56.89H512v-42.67H341.33c-50.12 0-85.34 42.84-85.34 94.93V702c0 52.09 40.78 94.47 90.9 94.47h335.77c50.12 0 85.32-47.47 85.34-99.56V540.44h-42.67z" fill="#3A3644" />
</svg>