<svg viewBox="0 0 1024 1024" version="1.1" xmlns="http://www.w3.org/2000/svg">
    <path d="M192.896 253.248L59.456 119.808l60.352-60.352 844.8 844.8-60.352 60.288-141.248-141.184A469.504 469.504 0 0 1 50.432 512a468.544 468.544 0 0 1 142.464-258.816z m436.736 436.736l-62.464-62.464a128 128 0 0 1-170.688-170.688l-62.464-62.464a213.312 213.312 0 0 0 295.68 295.68zM340.224 160.448A469.504 469.504 0 0 1 973.568 512a467.008 467.008 0 0 1-85.76 195.968l-164.736-164.672a213.312 213.312 0 0 0-242.304-242.304L340.224 160.384z" fill="#666666" />
</svg>