<svg viewBox="0 0 1024 1024" version="1.1" xmlns="http://www.w3.org/2000/svg">
    <path d="M464.928 228.512a49.968 49.968 0 0 1-0.16-4.128V112.64c0-26.864 21.472-48.64 47.952-48.64 12.736 0 24.928 5.12 33.92 14.256 9.008 9.12 14.064 21.504 14.064 34.4v111.728c0 1.392-0.064 2.768-0.176 4.128 34.016 3.28 67.376 10.032 99.632 19.968 1.184-3.04 2.672-6.016 4.48-8.832l52.96-88.864a47.84 47.84 0 0 1 41.136-23.504 47.872 47.872 0 0 1 41.696 24.816c8.48 15.28 8.16 34-0.784 49.008l-50.352 84.496a513.808 513.808 0 0 1 204.704 199.152c12.656 23.2 4.656 52.416-17.984 65.68a47.6 47.6 0 0 1-65.088-17.024c-73.84-129.44-211.104-209.776-358.288-209.776-147.168 0-284.448 80.384-358.304 209.648a47.888 47.888 0 0 1-41.856 25.808 47.856 47.856 0 0 1-42.384-24.912 49.232 49.232 0 0 1 1.28-49.648 514.272 514.272 0 0 1 202.8-197.888l-51.04-85.632A49.168 49.168 0 0 1 222.4 152a47.808 47.808 0 0 1 41.712-24.736 47.952 47.952 0 0 1 41.168 23.504l52.96 88.864c1.92 3.04 3.44 6.272 4.608 9.6a501.488 501.488 0 0 1 102.08-20.736zM512.72 960c-181.312 0-350.368-98.992-441.344-258.304a49.232 49.232 0 0 1-1.28-49.664 47.856 47.856 0 0 1 42.384-24.912c17.552 0.192 33.6 10.08 41.856 25.808 73.856 129.28 211.136 209.664 358.304 209.664 147.2 0 284.448-80.352 358.288-209.776a47.6 47.6 0 0 1 65.088-17.04c22.64 13.28 30.64 42.48 17.984 65.68C863.104 861.008 694.032 960 512.72 960z m-6.4-164.656c-106.72 0-193.44-86.352-193.44-192.384 0-106.048 86.816-192.4 193.44-192.4s193.44 86.352 193.44 192.4c0 106.032-86.72 192.384-193.44 192.384z" fill="#666666" />
</svg>