<svg viewBox="0 0 1024 1024" version="1.1" xmlns="http://www.w3.org/2000/svg">
    <path d="M506.129067 1014.306133l-316.416-153.429333A93.934933 93.934933 0 0 1 136.533333 776.430933V94.1056C136.533333 24.644267 210.056533-20.855467 273.066667 9.728l316.416 153.429333a93.934933 93.934933 0 0 1 53.213866 84.445867v682.325333c0 69.495467-73.5232 114.9952-136.533333 84.411734" fill="#2E78F3"/>
    <path d="M778.478933 144.384c13.653333 0 24.644267 10.990933 24.644267 24.507733a24.507733 24.507733 0 0 1-24.644267 24.439467h-98.781866a24.610133 24.610133 0 0 1-24.746667-24.439467c0-13.5168 11.093333-24.507733 24.746667-24.507733h98.781866zM778.478933 266.683733a24.4736 24.4736 0 1 1 0 48.9472h-98.781866a24.644267 24.644267 0 0 1-24.746667-24.507733c0-13.448533 11.093333-24.439467 24.746667-24.439467h98.781866zM778.478933 389.0176a24.4736 24.4736 0 1 1 0 48.9472h-98.781866a24.610133 24.610133 0 0 1-24.746667-24.439467c0-13.5168 11.093333-24.507733 24.746667-24.507733h98.781866zM778.478933 511.317333c13.653333 0 24.644267 10.990933 24.644267 24.541867a24.507733 24.507733 0 0 1-24.644267 24.405333h-98.781866a24.576 24.576 0 0 1-24.746667-24.405333c0-13.550933 11.093333-24.541867 24.746667-24.541867h98.781866z" fill="#FF8C58"/>
    <path d="M932.386133 234.632533a26.180267 26.180267 0 0 1-26.282666 26.077867h-45.8752v441.9584c0 35.908267-29.3888 65.058133-65.6384 65.058133H329.216V58.7776H902.997333c16.247467 0 29.422933 13.073067 29.422934 29.184v146.670933zM934.980267 0.443733H239.104v826.948267h596.753067a81.134933 81.134933 0 0 0 81.476266-80.759467V322.321067h6.997334c34.884267 0 65.536-27.989333 65.536-62.5664V63.044267C989.866667 28.433067 969.898667 0.443733 934.980267 0.443733z" fill="#2E78F3"/>
</svg>