<svg viewBox="0 0 1024 1024" version="1.1" xmlns="http://www.w3.org/2000/svg">
    <path d="M796.23205925 49.72847408H230.31656297c-109.34802963 0-198.42844445 89.08041482-198.42844445 198.42844444v565.79413333c0 109.34802963 89.08041482 198.42844445 198.42844445 198.42844445h565.79413333c109.34802963 0 199.15662222-89.08041482 198.42844445-198.42844445V248.15691852c0.12136297-109.46939259-88.95905185-198.42844445-198.3070815-198.42844444zM233.472 578.5069037h182.5298963c24.87940741 0 45.99656297 20.38897778 46.72474073 46.72474075v182.5298963c0 25.60758518-20.38897778 45.99656297-45.99656295 45.99656295-12.86447408 0-24.15122963-5.33997037-32.40391111-13.59265185s-13.59265185-20.38897778-13.59265186-32.4039111v-70.87597038L205.43715555 902.30328889c-18.08308148 18.08308148-47.57428148 18.08308148-65.65736296 0-18.08308148-18.08308148-18.08308148-47.57428148 0-65.65736297l165.29635556-165.29635555h-70.87597037c-25.60758518 0-45.99656297-20.38897778-45.99656296-45.99656296 0-25.72894815 19.6608-46.8461037 45.26838518-46.84610371z m556.69191111-105.46441481H607.63401482c-24.87940741 0-45.99656297-20.38897778-46.72474074-46.72474074V243.78785185c0-25.60758518 20.38897778-45.99656297 45.99656295-45.99656296 12.86447408 0 24.15122963 5.33997037 32.40391112 13.59265186s13.59265185 20.38897778 13.59265185 32.4039111v70.87597037l165.29635555-165.29635555c18.08308148-18.08308148 47.57428148-18.08308148 65.65736297 0 18.08308148 18.08308148 18.08308148 47.57428148 0 65.65736296L718.4384 380.32118518h70.87597037c25.60758518 0 45.99656297 20.38897778 45.99656296 45.99656297 0.12136297 25.60758518-19.53943703 46.72474075-45.14702222 46.72474074z" fill="#f6a42a" />
</svg>