<svg viewBox="0 0 1024 1024" version="1.1" xmlns="http://www.w3.org/2000/svg">
    <path d="M865.28 673.28a30.72 30.72 0 0 0-30.72 30.72v130.192H704A30.904 30.904 0 0 0 704 896h130.192a61.808 61.808 0 0 0 61.808-61.808V704a30.72 30.72 0 0 0-30.72-30.72zM834.192 128H704a30.904 30.904 0 0 0 0 61.808h130.192V320A30.904 30.904 0 0 0 896 320V189.808A61.808 61.808 0 0 0 834.192 128zM320 834.192H189.808V704A30.904 30.904 0 0 0 128 704v130.192A61.808 61.808 0 0 0 189.808 896H320a30.904 30.904 0 0 0 0-61.808zM158.72 350.72A30.72 30.72 0 0 0 189.44 320V189.808H320A30.904 30.904 0 0 0 320 128H189.808A61.808 61.808 0 0 0 128 189.808V320a30.72 30.72 0 0 0 30.72 30.72z m195.68-58.152h315.2q61.808 0 61.808 61.808V669.6q0 61.808-61.808 61.808H354.4q-61.808 0-61.808-61.808V354.4q-0.024-61.832 61.808-61.832z" fill="#85D628" />
</svg>