<svg viewBox="0 0 1024 1024" version="1.1" xmlns="http://www.w3.org/2000/svg">
    <path d="M333.06 351.34c-9.95 0-18.51 3.38-25.67 10.55-7.17 7.17-10.55 15.72-10.55 25.67 0 9.95 3.38 18.51 10.55 25.68 7.17 7.16 15.72 10.55 25.67 10.55 9.95 0 18.51-3.38 25.68-10.55 7.16-7.17 10.95-15.52 10.35-25.68 0-9.95-3.18-18.51-10.35-25.67-7.17-7.17-15.73-10.55-25.68-10.55z" fill="#62B538" />
    <path d="M860.67 63.95H164.09c-54.96 0-99.51 44.55-99.51 99.51v696.59c0 54.96 44.55 99.51 99.51 99.51h696.59c54.96 0 99.51-44.55 99.51-99.51V163.46c0-54.96-44.56-99.51-99.52-99.51zM497.45 727.3c-9.95 0-18.51-3.18-25.67-10.35l-203.8-203.8c-7.56-7.17-13.33-16.72-18.51-29.06-5.17-11.94-7.56-23.29-7.56-33.24V332.63c0-9.95 3.78-18.51 10.95-25.67s15.72-10.95 25.68-10.95h118.62c9.95 0 20.9 2.39 33.24 7.56 11.94 5.17 21.89 11.34 29.06 18.51l203.8 203.4c6.97 7.56 10.35 16.12 10.35 26.07s-3.78 18.51-10.35 25.67L523.53 716.95c-7.57 6.96-16.13 10.35-26.08 10.35z m275.06-150.47L632.79 716.95c-7.56 7.16-16.12 10.55-26.07 10.55-6.77 0-12.54-0.99-16.72-3.78s-9.35-6.97-15.13-12.74l133.55-133.94c7.17-7.17 10.55-15.72 10.55-25.67 0-9.95-3.38-18.51-10.55-26.07l-203.8-203.2c-7.16-7.56-16.72-13.33-29.06-18.51-11.94-5.17-23.29-7.56-33.24-7.56h64.09c9.95 0 20.9 2.39 33.24 7.56 11.94 5.17 21.89 11.34 29.06 18.51l203.8 203.2c6.97 7.76 10.35 15.92 10.35 25.87 0 9.94-3.19 18.5-10.35 25.66z" fill="#62B538" />
</svg>