<svg viewBox="0 0 1024 1024" version="1.1" xmlns="http://www.w3.org/2000/svg">
    <path d="M0 0h1024v1024H0z" fill="#FFFFFF" fill-opacity="0" />
    <path d="M938.666667 512c0-235.605333-191.061333-426.666667-426.666667-426.666667a424.448 424.448 0 0 0-166.101333 33.536 425.728 425.728 0 0 0-68.522667 36.650667c-23.978667 15.786667-46.336 34.048-67.072 54.784a425.514667 425.514667 0 0 0-91.392 135.594667 423.594667 423.594667 0 0 0-23.552 73.386666A426.666667 426.666667 0 0 0 85.333333 512c0 235.648 191.018667 426.666667 426.666667 426.666667 235.605333 0 426.666667-191.018667 426.666667-426.666667zM440.490667 199.978667a318.933333 318.933333 0 0 0-154.794667 85.76 320.384 320.384 0 0 0-68.608 101.717333 317.184 317.184 0 0 0-25.173333 124.586667A320 320 0 1 0 512 192a320 320 0 0 0-71.466667 7.936z" fill="#1EA756" opacity=".2" />
    <path d="M511.573333 85.333333c-57.6 0-113.066667 11.093333-165.973333 33.28C294.826667 140.373333 249.6 170.666667 209.92 209.92 170.666667 249.6 140.373333 294.826667 118.613333 345.6A425.472 425.472 0 0 0 85.333333 511.573333c0 235.52 190.293333 426.24 425.386667 426.666667H512a53.333333 53.333333 0 0 0 0-106.666667 319.573333 319.573333 0 0 1-320-320c0-43.093333 8.106667-84.906667 24.746667-124.16 16.213333-38.4 39.253333-72.533333 68.693333-101.973333 29.44-29.44 63.573333-52.48 101.973333-68.693333 39.253333-16.64 80.213333-24.746667 123.306667-24.746667h0.853333c29.866667 0 53.333333-23.893333 53.333334-53.333333 0-29.866667-23.466667-53.333333-53.333334-53.333334z" fill="#1EA756" />
</svg>