<svg viewBox="0 0 1024 1024" version="1.1" xmlns="http://www.w3.org/2000/svg">
    <path d="M264.777143 47.030857C264.777143 20.845714 287.451429 0 315.465143 0c28.013714 0 50.761143 20.918857 50.761143 45.714286v96.036571c0 26.038857-22.820571 46.957714-50.761143 46.957714-27.940571 0-50.541714-20.918857-50.541714-46.957714V47.030857z m376.32 0c0-26.185143 22.528-47.030857 50.541714-47.030857 28.086857 0 50.761143 20.918857 50.761143 45.714286v96.036571c0 26.038857-22.747429 46.957714-50.761143 46.957714-27.940571 0-50.541714-20.918857-50.541714-46.957714V47.030857z m309.686857 160.182857v550.985143c0 10.093714-2.706286 19.017143-5.485714 29.403429-2.706286 10.459429-21.796571 32.402286-21.796572 32.402285L746.057143 993.28s-15.506286 18.212571-31.305143 25.014857a100.937143 100.937143 0 0 1-36.571429 5.632H184.027429C102.692571 1024 73.142857 981.577143 73.142857 905.874286V207.433143c0-70.582857 20.626286-119.369143 104.594286-119.369143h63.561143v70.217143c0 35.181714 36.425143 63.268571 74.093714 63.268571 37.668571 0 74.313143-28.16 74.313143-63.268571v-70.436572h227.84v70.290286c0 35.108571 36.571429 63.268571 74.093714 63.268572 37.668571 0 74.313143-28.16 74.313143-63.268572v-70.217143h70.290286c77.531429 0 114.614857 48.859429 114.614857 119.369143zM598.674286 777.508571c16.530286 0 27.940571-20.845714 27.940571-37.814857a32.548571 32.548571 0 0 0-31.744-31.451428h-315.977143a31.451429 31.451429 0 0 0-30.573714 31.451428c0 16.969143 16.530286 37.741714 33.060571 37.741715l317.293715 0.073142z m133.339428-185.051428c16.457143 0 33.865143-18.285714 33.865143-35.254857-1.243429-18.285714-15.213714-34.011429-31.744-34.011429H286.72c-16.603429 0-30.573714 17.042286-30.573714 34.011429 0 17.042286 10.532571 35.328 27.062857 35.328h448.804571z m0-189.878857c16.457143 0 33.865143-18.285714 33.865143-35.328-1.243429-18.285714-15.213714-34.011429-31.744-34.011429H286.72c-16.603429 0-30.573714 17.042286-30.573714 34.011429 0 17.042286 10.532571 35.328 27.062857 35.328h448.804571z" fill="#FFC014" />
</svg>