<svg viewBox="0 0 1024 1024" version="1.1" xmlns="http://www.w3.org/2000/svg">
    <path d="M352 153.6c16 0 28.8 6.4 41.6 16s16 25.6 16 41.6v230.4c0 16-6.4 28.8-16 41.6-12.8 12.8-25.6 16-41.6 16H121.6c-16 0-28.8-6.4-41.6-16-9.6-12.8-16-25.6-16-41.6V208c0-16 6.4-28.8 16-38.4 9.6-9.6 25.6-16 41.6-16H352z m0 460.8c16 0 28.8 6.4 41.6 16s16 25.6 16 41.6v230.4c0 16-6.4 28.8-16 41.6-12.8 9.6-25.6 16-41.6 16H121.6c-16 0-28.8-6.4-41.6-16-9.6-12.8-16-25.6-16-41.6V672c0-16 6.4-28.8 16-41.6 9.6-9.6 25.6-16 41.6-16H352z m460.8 0c16 0 28.8 6.4 41.6 16 9.6 9.6 16 25.6 16 41.6v230.4c0 16-6.4 28.8-16 41.6-9.6 9.6-25.6 16-41.6 16h-230.4c-16 0-28.8-6.4-41.6-16s-16-25.6-16-41.6V672c0-16 6.4-28.8 16-41.6 12.8-9.6 25.6-16 41.6-16h230.4z m128-361.6c12.8 12.8 19.2 28.8 19.2 44.8s-6.4 32-19.2 41.6L771.2 512c-12.8 12.8-25.6 19.2-41.6 19.2s-32-6.4-41.6-19.2L512 339.2c-12.8-12.8-16-25.6-16-41.6s6.4-32 16-44.8l169.6-172.8c16-9.6 28.8-16 44.8-16 16 0 32 6.4 41.6 16l172.8 172.8z" fill="#00AA5D" />
</svg>