<svg viewBox="0 0 1024 1024" version="1.1" xmlns="http://www.w3.org/2000/svg">
    <path d="M38.353578 914.63012L912.971291 69.41501a51.05228 51.05228 0 0 1 69.142439 0 43.006792 43.006792 0 0 1 0 66.801932l-218.057112 210.645511v161.884976A262.282917 262.282917 0 0 1 498.262943 765.569165a290.515266 290.515266 0 0 1-132.921218-33.400966l-45.249776 43.689439a342.591518 342.591518 0 0 0 178.170994 51.393604 321.478206 321.478206 0 0 0 327.036907-316.017026v-20.479425a37.691893 37.691893 0 0 1 11.507486-27.647223c16.090976-14.62816 40.617526-14.62816 56.708502 0 7.460362 7.216559 11.702528 17.163708 11.556247 27.549702v20.479425c0 197.82149-151.547742 359.657705-345.614671 390.474363v43.689439a61.243232 61.243232 0 0 1-122.291421 0v-43.689439a417.731502 417.731502 0 0 1-175.537926-69.337481l-153.937008 149.012194c-19.552974 17.992637-49.638224 17.992637-69.142438 0a46.907634 46.907634 0 0 1-0.195043-66.655651z m196.699998-403.395904V256.899266A262.087875 262.087875 0 0 1 500.944772 0.077529a269.987081 269.987081 0 0 1 231.368738 131.019557l-481.217718 464.98046a219.76373 219.76373 0 0 1-15.944695-84.79457l-0.097521-0.04876zM142.067236 698.767233a381.794988 381.794988 0 0 1-50.515914-187.533017v-20.479425a39.886117 39.886117 0 0 1 79.772235 0v20.479425a294.708672 294.708672 0 0 0 29.256321 128.484009l-58.512642 59.049008z" fill="#FA6D5B" />
</svg>