<svg viewBox="0 0 1024 1024" version="1.1" xmlns="http://www.w3.org/2000/svg">
    <path d="M555.176 29.088C496.136-4.936 442.64-8.096 404.016 14.312L319.056 63.584l0.384-0.208c-38.352 22.024-62.144 69.12-62.336 136.184-0.384 134.544 200.432 598.552 211.008 622.968l84.952-49.272c10.672-12.184 213.448-243.624 213.84-378.176 0.376-134.544-94.424-298.4-211.728-366z" fill="#D80029" />
    <path d="M469.992 159.792c73.896 42.584 133.608 145.808 133.36 230.568-0.24 84.752-60.336 118.936-134.24 76.352-73.904-42.592-133.616-145.808-133.376-230.56 0.24-84.768 60.336-118.96 134.256-76.36z" fill="#A50020" />
    <path d="M553.648 417.584c-73.92-42.592-133.624-145.808-133.384-230.56 0.048-16.64 2.432-31.312 6.744-43.856-52.88-9.92-91.088 25.456-91.28 92.984-0.24 84.744 59.48 187.968 133.392 230.56 59.384 34.224 109.832 18.832 127.488-32.504-13.496-2.528-27.936-7.96-42.96-16.624z" fill="#C60024" />
    <path d="M775.272 822.744h-0.056c0-8.48-1.16-16.96-3.584-25.336 0 0-0.064-0.072-0.064-0.136a102.016 102.016 0 0 0-7.12-17.832c-0.064-0.136-0.136-0.2-0.2-0.336-12.024-23.392-33.984-45.376-65.888-63.744-102.496-59.12-270.264-59.12-372.824 0-31.904 18.432-53.864 40.416-65.888 63.816a0.504 0.504 0 0 0-0.136 0.264 100.256 100.256 0 0 0-6.92 17.232 90.64 90.64 0 0 0-3.856 26.072H248.728v47.536h0.008c-0.024 38.92 25.56 77.872 76.8 107.384 102.56 59.12 270.328 59.12 372.816 0 51.296-29.504 76.856-68.456 76.864-107.384h0.048v-47.536z" fill="#8FCC05" />
    <path d="M698.368 930.128c-102.496 59.12-270.272 59.12-372.824 0-62.728-36.128-87.04-86.4-72.936-133.464 1.68-5.76 4.024-11.52 6.912-17.224 0-0.064 0.064-0.2 0.136-0.272 12.024-23.392 33.984-45.376 65.888-63.816 102.56-59.12 270.328-59.12 372.824 0 31.904 18.368 53.864 40.36 65.888 63.752 0.064 0.136 0.136 0.2 0.2 0.336 3.024 5.896 5.376 11.864 7.12 17.832 0 0.064 0.064 0.128 0.064 0.128 13.568 46.856-10.808 96.8-73.272 132.72z" fill="#9CDD03" />
    <path d="M470.216 78.36c117.304 67.6 212.112 231.456 211.728 366-0.384 134.544-203.168 365.992-213.84 378.176-10.56-24.424-211.384-488.432-211-622.976 0.376-134.552 95.8-188.8 213.12-121.2zM469.12 466.72c73.896 42.584 134 8.4 134.24-76.352 0.24-84.768-59.472-187.984-133.368-230.568-73.92-42.592-134.016-8.408-134.256 76.36-0.24 84.744 59.472 187.968 133.384 230.56z" fill="#FE0B37" />
    <path d="M555.176 29.088C496.136-4.936 442.64-8.096 404.016 14.312L319.056 63.584c38.632-22.4 92.128-19.24 151.168 14.776 117.304 67.6 212.104 231.456 211.72 366-0.384 134.544-203.168 365.992-213.84 378.176l84.96-49.28c10.672-12.176 213.448-243.624 213.84-378.168 0.376-134.552-94.424-298.408-211.728-366z" fill="#D80029" />
</svg>