<svg viewBox="0 0 1024 1024" version="1.1" xmlns="http://www.w3.org/2000/svg">
    <path d="M22.1 866.9a490.9 95.6 0 1 0 981.8 0 490.9 95.6 0 1 0-981.8 0Z" fill="#83C6EF"/>
    <path d="M513 771.3v191.1c271.1 0 490.9-42.8 490.9-95.6 0-52.7-219.8-95.5-490.9-95.5z" fill="#429BCF"/>
    <path d="M788.5 292.5C788.5 444.7 513 829 513 829S237.5 444.7 237.5 292.5 360.8 17 513 17s275.5 123.4 275.5 275.5z" fill="#FFD858"/>
    <path d="M513 17v812s275.5-384.3 275.5-536.5C788.5 140.4 665.2 17 513 17z" fill="#FDC223"/>
    <path d="M513 292.5m-96.6 0a96.6 96.6 0 1 0 193.2 0 96.6 96.6 0 1 0-193.2 0Z" fill="#FFFFFF"/>
    <path d="M513 195.9v193.2c53.4 0 96.6-43.3 96.6-96.6s-43.2-96.6-96.6-96.6z" fill="#D2EDF7"/>
</svg>