<svg viewBox="0 0 1024 1024" version="1.1" xmlns="http://www.w3.org/2000/svg">
    <path d="M512.018124 0C229.240071 0 0 229.249133 0 512 0 794.778053 229.240071 1024 512.018124 1024 794.778053 1024 1024 794.796177 1024 512 1024 229.249133 794.778053 0 512.018124 0zM389.699965 372.862867c0-32.659257 12.759221-63.397381 35.957805-86.586903 22.591434-22.881416 54.027327-35.984991 86.278796-35.984991 32.641133 0 63.379257 12.777345 86.586903 35.984991 23.189522 23.189522 35.966867 53.927646 35.966867 86.586903l0 118.811186c0 32.550513-12.777345 63.243327-35.966867 86.423788-23.207646 23.216708-53.94577 35.984991-86.586903 35.984991-32.260531 0-63.678301-13.085451-86.242549-35.948743l-1.295858-1.250549c-22.337699-22.917664-34.707257-53.220814-34.707257-85.200425L389.690903 372.862867 389.699965 372.862867zM703.841416 491.674053c0 25.862796-4.884389 50.484106-14.535363 73.202407-9.63285 23.280142-23.624496 44.285735-41.648708 62.473062-31.073416 31.064354-72.169345 50.765027-115.675752 55.404743l-7.095504 0.779327 0 64.865416 110.456071 0c6.905204 0 12.514549 5.681841 12.514549 12.65954 0 6.986761-5.609345 12.668602-12.514549 12.668602L389.083752 773.72715c-7.149876 0-12.958584-5.681841-12.958584-12.668602 0-6.986761 5.808708-12.65954 12.958584-12.65954l110.17515 0 0-65.236956-7.186124-0.706832c-18.341381-1.794265-36.247788-6.343363-53.184566-13.529487-22.990159-9.433487-43.98669-23.434195-62.482124-41.65777-17.933593-18.087646-31.925239-39.084177-41.539965-62.337133-9.750655-23.633558-14.70754-48.300177-14.70754-73.256779l0-59.609487c0-6.88708 5.854018-12.686726 12.813593-12.686726 7.059257 0 12.813593 5.699965 12.813593 12.686726l0 59.609487c0 22.410195 4.213805 43.723894 12.56892 63.370195 8.463858 20.298761 21.023717 39.093239 36.320283 54.22669 15.414372 15.396248 33.610761 27.611752 54.054513 36.284035 20.353133 8.246372 41.576212 12.387681 63.198018 12.387681 44.466973 0 86.197239-17.290195 117.43377-48.707965 15.396248-15.115327 27.983292-33.909805 36.338407-54.299186 8.391363-19.755044 12.650478-41.077805 12.650478-63.261451l0-59.609487c0-6.986761 5.763398-12.686726 12.822655-12.686726 6.986761 0 12.65954 5.699965 12.65954 12.686726l0 59.609487L703.841416 491.674053z" fill="#ff5151" />
</svg>