<svg viewBox="0 0 1027 1024" version="1.1" xmlns="http://www.w3.org/2000/svg">
    <path d="M1020.44444 460.8l-185.6-230.4c-19.2-25.6-57.6-25.6-76.8 0l-185.6 230.4c-12.8 19.2 0 44.8 19.2 44.8h70.4c0 134.4 0 307.2-243.2 448-6.4 6.4 0 12.8 6.4 12.8 454.4-70.4 492.8-377.6 492.8-460.8h76.8c25.6 0 38.4-25.6 25.6-44.8z m-582.4 57.6h-76.8c0-134.4 0-307.2 243.2-448 6.4-6.4 0-12.8-6.4-12.8-454.4 70.4-492.8 377.6-492.8 460.8h-76.8c-25.6 0-38.4 25.6-19.2 44.8l185.6 230.4c19.2 25.6 57.6 25.6 76.8 0l185.6-230.4c12.8-19.2 0-44.8-19.2-44.8z" fill="#3EB370" />
</svg>