<svg viewBox="0 0 1024 1024" version="1.1" xmlns="http://www.w3.org/2000/svg">
    <path d="M512 512m-512 0a512 512 0 1 0 1024 0 512 512 0 1 0-1024 0Z" fill="#0B8A5F" />
    <path d="M624.7424 422.4a38.4 38.4 0 1 1 0-76.8h27.4432a217.6 217.6 0 1 0 65.8432 236.4416 38.4 38.4 0 1 1 72.704 24.6784 294.4 294.4 0 1 1-86.6816-317.8496L704 266.24a38.4 38.4 0 0 1 33.1776-38.0416l5.2224-0.3584a38.4 38.4 0 0 1 38.4 38.4v117.76a38.4 38.4 0 0 1-38.4 38.4h-117.6576z" fill="#FFFFFF" />
    <path d="M435.712 534.2208l101.9904 58.3168a25.6 25.6 0 0 0 38.2976-22.272V453.7344a25.6 25.6 0 0 0-38.2976-22.272L435.712 489.7792a25.6 25.6 0 0 0 0 44.4416z" fill="#FFFFFF" />
</svg>