<svg viewBox="0 0 1024 1024" version="1.1" xmlns="http://www.w3.org/2000/svg" p-id="7155">
    <path d="M799.5904 927.232H232.448c-62.0544 0-112.3328-50.7392-112.3328-113.408V206.592c0-62.6176 50.2784-113.408 112.3328-113.408h485.4784c9.4208 0 18.432 3.7376 25.1392 10.3936l158.1056 156.672a36.4544 36.4544 0 0 1 10.752 25.856v527.7184c0 62.6176-50.2784 113.408-112.3328 113.408z" fill="#FFAC3E" />
    <path d="M620.3392 450.816H411.6992c-54.7328 0-99.1232-44.3904-99.1232-99.1232V93.184h406.8864v258.4576c0 54.784-44.3904 99.1744-99.1232 99.1744z" fill="#FF7C0E" />
    <path d="M602.9312 361.6256H490.3936c-22.6304 0-40.96-18.3296-40.96-40.96s18.3296-40.96 40.96-40.96h112.5888c22.6304 0 40.96 18.3296 40.96 40.96s-18.3808 40.96-41.0112 40.96z" fill="#FFFFFF" />
</svg>