<svg viewBox="0 0 1024 1024" version="1.1" xmlns="http://www.w3.org/2000/svg">
    <path d="M719.155 951.81c-131.41 0-238.219-106.839-238.219-238.282 0-131.342 106.81-238.217 238.22-238.217 131.44 0 238.346 106.876 238.346 238.217 0.002 131.445-106.907 238.282-238.347 238.282z m0.008-417.981c-99.038 0-179.71 80.59-179.71 179.71 0 99.092 80.672 179.791 179.71 179.791 99.144 0 179.792-80.672 179.792-179.791-0.028-99.15-80.648-179.71-179.792-179.71z m259.387 487.573c-8.126 3.988-17.04 3.09-20.885-0.748L844.092 907.031c-7.776-7.587 5.055-34.253 12.83-41.982 7.68-7.682 20.14-7.682 27.913 0l113.533 113.53c7.773 7.725 7.773 20.276 0 27.96-3.845 3.84-15.402 12.696-19.818 14.863zM446.127 718.44c0-145.077 108.499-274.402 241.991-274.402 48.598 0 93.896-4.421 131.856 22.52V240.755H552.352c-73.14 0-132.463-64.42-132.463-143.991L419.89 0H152.266C79.128 0 19.803 64.485 19.803 143.991v658.725c0 79.507 59.325 143.995 132.463 143.995h415.962c-72.864-45.449-122.1-130.686-122.1-228.272z m135.08-499.884h240.979L450.62 0.001v87.87c0 72.16 58.461 130.684 130.587 130.684z" fill="#93C55C" />
</svg>