<svg viewBox="0 0 1024 1024" version="1.1" xmlns="http://www.w3.org/2000/svg">
    <path d="M411.89176 847.95117c13.75056 0 27.501119-1.250051 41.251678-3.750153l13.125535 28.334487c8.125331 17.709054 29.167854 25.626043 47.085249 17.29237l36.043133-16.667345c17.709054-8.125331 25.626043-29.376195 17.29237-47.085249l-13.125534-28.334487c17.29237-13.958901 32.084639-30.001221 44.168464-47.918616l29.376195 10.833774c17.709054 6.666938 38.959919-3.125127 45.626857-21.042523l13.75056-37.293184c3.333469-8.958698 2.916785-18.542421-1.04171-27.084435s-11.042116-15.208952-19.792472-18.33408l-29.376195-10.833774c2.29176-21.459207 1.666734-43.335097-2.500102-65.210987l28.542828-13.125534c17.709054-8.125331 25.626043-29.167854 17.292371-47.085249l-16.667345-36.043133c-8.125331-17.709054-29.376195-25.626043-47.085249-17.29237l-28.334487 13.125534c-13.958901-17.29237-30.001221-32.084639-47.918616-44.168464l10.833774-29.376196c3.333469-8.958698 2.916785-18.542421-1.041709-27.084435s-11.042116-15.208952-19.792472-18.334079l-37.293184-13.75056c-8.958698-3.333469-18.542421-2.916785-27.084436 1.041709s-15.208952 11.042116-18.334079 20.000814l-10.833774 29.376195c-7.708647-0.833367-15.417294-1.250051-23.334283-1.25005h-0.416683v85.2118h0.416683c54.377213 0.208342 104.170905 32.084639 126.880163 81.461648 32.292981 70.21119 1.458393 153.547915-68.544456 185.840895-18.542421 8.542014-38.126551 12.917192-58.544049 12.917193l-0.625025 85.628484z" fill="#F9A825" />
    <path d="M158.339776 587.732248l29.376196 10.833774c-2.29176 21.459207-1.666734 43.335097 2.500101 65.210987l-28.334486 13.125534c-17.709054 8.125331-25.626043 29.376195-17.29237 47.085249l16.667345 36.043134c8.125331 17.709054 29.167854 25.626043 47.085249 17.29237l28.542828-13.125534c13.958901 17.29237 30.001221 32.084639 47.918616 44.168464l-10.833774 29.376195c-6.666938 18.334079 2.708444 38.751577 21.042523 45.418515l37.293184 13.750559c17.709054 6.458596 38.959919-3.333469 45.418515-21.042522l10.833774-29.376196c7.916989 0.833367 15.833978 1.250051 23.750967 1.250051V762.531027c-54.585554 0-104.587589-32.084639-127.296847-81.461648-32.292981-70.21119-1.458393-153.547915 68.544456-186.049237 18.542421-8.542014 38.334893-12.917192 58.544049-12.917192v-85.2118c-13.75056 0-27.501119 1.250051-41.251679 3.750152l-13.125534-28.334486c-8.125331-17.709054-29.376195-25.626043-47.085249-17.29237l-36.043133 16.667344c-17.709054 8.125331-25.626043 29.167854-17.292371 47.08525l13.125534 28.334486c-17.29237 13.958901-32.084639 30.001221-44.168463 47.918616l-29.376196-10.833774c-8.958698-3.333469-18.542421-2.916785-27.084435 1.041709s-15.208952 11.042116-18.33408 20.000814l-13.750559 37.293184c-7.291963 18.125738 2.29176 38.543235 20.625839 45.210173z" fill="#FFB74D" />
    <path d="M735.446592 431.684232c7.708647 0 15.208952-0.625025 22.917599-2.083418l7.291964 15.833977c4.58352 9.792065 16.250661 14.167243 26.042726 9.583724l20.000814-9.16704c9.792065-4.58352 14.167243-16.250661 9.583723-26.042726l-7.291963-15.833978c9.583723-7.708647 17.709054-16.667345 24.584333-26.667752l16.250662 6.041913c9.792065 3.750153 21.667548-1.875076 25.209359-11.667142l7.708647-20.625839c1.875076-5.000203 1.666734-10.208749-0.625026-15.00061s-6.041913-8.333672-11.042116-10.208749l-16.250661-6.041912c1.250051-11.875483 0.833367-23.959308-1.458393-36.043134l15.833978-7.291963c9.792065-4.58352 14.167243-16.250661 9.583723-26.042726l-9.167039-20.000814c-4.58352-9.792065-16.250661-14.167243-26.042727-9.583724l-15.833977 7.291964c-7.708647-9.583723-16.667345-17.709054-26.45941-24.584334l6.041912-16.250661c1.875076-5.000203 1.666734-10.208749-0.625025-15.00061-2.083418-4.791862-6.041913-8.333672-11.042116-10.208749l-20.625839-7.708647c-5.000203-1.875076-10.208749-1.666734-15.000611 0.625025s-8.333672 6.041913-10.208749 11.042116l-6.041912 16.250661c-4.375178-0.416684-8.542014-0.625025-12.917192-0.625025h-0.208342v47.293591h0.208342c30.209563 0.208342 57.710682 17.917396 70.419532 45.210173 17.917396 38.959919 0.833367 85.211801-38.126552 103.129196-10.208749 4.791862-21.250865 7.083622-32.501322 7.083622l-0.208342 47.293591z" fill="#E53935" />
    <path d="M594.81587 287.303357l16.250661 6.041913c-1.250051 11.875483-0.833367 23.959308 1.458393 36.043133l-15.833978 7.291963c-9.792065 4.58352-14.167243 16.250661-9.583723 26.042727l9.167039 20.000813c4.58352 9.792065 16.250661 14.167243 26.042727 9.583724l15.833977-7.291964c7.708647 9.583723 16.667345 17.709054 26.45941 24.584334l-6.041912 16.250661c-3.750153 10.208749 1.458393 21.459207 11.667141 25.209359l20.62584 7.708647c9.792065 3.541811 21.667548-1.875076 25.209359-11.667141l6.041912-16.250661c4.375178 0.416684 8.750356 0.625025 13.333876 0.625025v-47.293591c-30.209563 0-57.919023-17.709054-70.627874-45.210173-17.917396-38.959919-0.833367-85.211801 38.126552-103.129196 10.417091-4.791862 21.250865-7.083622 32.501322-7.083622V181.465717c-7.708647 0-15.208952 0.625025-22.917599 2.083418l-7.291963-15.833977c-4.58352-9.792065-16.250661-14.167243-26.042727-9.583724l-20.000814 9.16704c-9.792065 4.58352-14.167243 16.250661-9.583723 26.042726l7.291963 15.833978c-9.583723 7.708647-17.709054 16.667345-24.584333 26.45941l-16.250662-6.041913c-5.000203-1.875076-10.208749-1.666734-15.00061 0.625026s-8.333672 6.041913-10.208749 11.042116l-7.708647 20.625839c-3.750153 10.208749 1.458393 21.667548 11.667142 25.417701z" fill="#EF5350" />
    <path d="M446.893184 316.471211c5.208545 0 10.417091-0.416684 15.625636-1.458393l5.000203 10.833774c3.125127 6.87528 11.250458 9.792065 17.917396 6.666938l13.75056-6.250254c6.666938-3.125127 9.792065-11.250458 6.666938-17.917396l-5.000204-10.833774c6.458596-5.416887 12.292167-11.4588 16.875687-18.33408l11.250458 4.166837c6.666938 2.500102 14.792269-1.250051 17.29237-7.916989l5.208545-14.167243c1.250051-3.333469 1.041709-7.083622-0.416683-10.417091s-4.166836-5.833571-7.500306-7.083621l-11.250457-4.166837c0.833367-8.125331 0.625025-16.459003-1.04171-24.792675l10.833775-5.000204c6.666938-3.125127 9.792065-11.250458 6.666938-17.917395l-6.250255-13.75056c-3.125127-6.666938-11.250458-9.792065-17.917395-6.666938l-10.833775 5.000204c-5.208545-6.666938-11.4588-12.292167-18.334079-16.875687l4.166836-11.250458c1.250051-3.333469 1.041709-7.083622-0.416683-10.41709s-4.166836-5.833571-7.500306-7.083622l-14.167243-5.208545c-3.333469-1.250051-7.083622-1.041709-10.41709 0.416684s-5.833571 4.166836-7.083622 7.500305l-4.166836 11.250457c-2.916785-0.416684-5.833571-0.416684-8.958698-0.416683h-0.208342V177.090539h0.208342c20.625839 0 39.584944 12.292167 48.3353 31.04293 12.292167 26.667752 0.625025 58.544049-26.251068 70.836216-7.083622 3.333469-14.583927 5.000203-22.292574 5.000203l0.208342 32.501323z" fill="#26A69A" />
    <path d="M350.222584 217.300509l11.250458 4.166836c-0.833367 8.125331-0.625025 16.459003 1.041709 24.792675l-10.833774 5.000204c-6.666938 3.125127-9.792065 11.250458-6.666938 17.917396l6.250254 13.750559c3.125127 6.666938 11.250458 9.792065 17.917396 6.666938l10.833774-5.000203c5.416887 6.666938 11.4588 12.292167 18.334079 16.875686l-4.166836 11.250458c-2.500102 7.083622 1.041709 14.792269 7.916989 17.29237l14.167243 5.208546c6.666938 2.500102 14.792269-1.250051 17.29237-7.916989l4.166836-11.250458c2.916785 0.416684 6.041913 0.416684 9.16704 0.416684v-32.501323c-20.834181 0-39.793286-12.292167-48.543642-31.04293-12.292167-26.876094-0.625025-58.544049 26.251068-70.836215 7.083622-3.333469 14.583927-5.000203 22.292574-5.000204V144.589217c-5.208545 0-10.417091 0.416684-15.833977 1.458392l-5.000204-10.833774c-3.125127-6.666938-11.250458-9.792065-17.917396-6.666938l-13.750559 6.250255c-6.87528 3.125127-9.792065 11.250458-6.666938 17.917395l5.000203 10.833774c-6.458596 5.208545-12.292167 11.4588-16.875686 18.33408l-11.250458-4.166836c-3.333469-1.250051-7.083622-1.041709-10.417091 0.416683s-5.833571 4.166836-7.083621 7.500305l-5.208546 14.167244c-2.29176 7.083622 1.458393 14.792269 8.333673 17.500712z" fill="#4DB6AC" />
</svg>