<svg viewBox="0 0 1024 1024" version="1.1" xmlns="http://www.w3.org/2000/svg">
    <path d="M512 64a448 448 0 1 1 0 896 448 448 0 0 1 0-896zM357.76 619.008h0.32c14.72 0 26.816-11.776 27.264-26.496v-0.96l303.168-302.528a18.752 18.752 0 1 0-26.56-26.56l-78.72 78.656a26.496 26.496 0 0 0-2.368-1.472L443.776 265.6c-23.296-12.736-51.52-12.736-74.88 0-23.552 11.52-38.592 35.328-38.912 61.568v265.408l0.064 1.152-93.568 93.376a18.688 18.688 0 0 0 13.312 32c4.992 0 9.728-1.984 13.248-5.504l94.72-94.528z m185.024-237.632L385.344 538.56V327.04c0-6.272 3.584-12.096 9.344-14.784a19.456 19.456 0 0 1 19.456 0l128.64 69.12zM397.504 768c11.84-0.128 23.36-3.2 33.6-8.96l328-180.096a63.104 63.104 0 0 0 0-111.872l-107.392-58.88a26.24 26.24 0 0 0-34.752 8.96 23.744 23.744 0 0 0-2.688 18.752 24.96 24.96 0 0 0 12.096 15.616l107.328 59.648a14.4 14.4 0 0 1 0 25.28L405.76 716.544a16 16 0 0 1-16.384 0 13.632 13.632 0 0 1-7.808-12.8 25.728 25.728 0 0 0-51.584 0c0.192 23.36 13.248 44.8 33.984 55.68 10.24 5.632 21.824 8.576 33.6 8.576z" fill="#FF5E67" />
</svg>