<svg viewBox="0 0 1024 1024" version="1.1" xmlns="http://www.w3.org/2000/svg">
    <path d="M710.809367 147.615427 102.040972 147.615427c-41.445002 0-75.157727 33.716905-75.157727 75.157727l0 726.069119c0 41.440822 33.716905 75.157727 75.157727 75.157727l608.768395 0c41.440822 0 75.157727-33.716905 75.157727-75.157727L785.967094 222.773154C785.967094 181.332332 752.254368 147.615427 710.809367 147.615427z" fill="#E37B32" />
    <path d="M924.496051 0 338.205593 0c-41.440822 0-75.157727 33.716905-75.157727 75.157727l0 10.695619 447.761501 0c75.500455 0 136.923987 61.423532 136.923987 136.923987L847.733354 850.700876l76.766877 0c41.440822 0 75.157727-33.716905 75.157727-75.157727L999.657958 75.157727C999.657958 33.712725 965.941053 0 924.496051 0z" fill="#E37B32" />
</svg>