<svg viewBox="0 0 1024 1024" version="1.1" xmlns="http://www.w3.org/2000/svg" style="fill: var(--icon-color, #FFD700);">
    <path d="M112 734.378667c-26.517333 0-48 21.845333-48 48.810666C64 810.154667 85.482667 832 112 832h714.666667c26.517333 0 48-21.845333 48-48.810667 0-26.965333-21.482667-48.810667-48-48.810666H112z m731.456-321.642667a21.12 21.12 0 0 1 13.866667 5.205333l95.232 83.008a21.952 21.952 0 0 1 0 32.938667l-95.232 83.008a21.077333 21.077333 0 0 1-30.08-2.346667 21.909333 21.909333 0 0 1-5.12-14.122666v-165.994667c0-11.989333 9.536-21.696 21.333333-21.696zM112 463.189333C85.482667 463.189333 64 485.034667 64 512c0 26.965333 21.482667 48.810667 48 48.810667h544c26.517333 0 48-21.845333 48-48.810667 0-26.965333-21.482667-48.810667-48-48.810667H112zM112 192C85.482667 192 64 213.845333 64 240.810667c0 26.965333 21.482667 48.810667 48 48.810666h714.666667c26.517333 0 48-21.845333 48-48.810666C874.666667 213.845333 853.184 192 826.666667 192H112z"/>
</svg>