<svg viewBox="0 0 1230 1024" version="1.1" xmlns="http://www.w3.org/2000/svg">
    <path d="M0.008 162.739635a86.003998 86.003998 0 1 0 171.992016 0 86.003998 86.003998 0 0 0-171.992016 0zM1117.980072 627.116479a51.599203 51.599203 0 1 0 103.198405 0 51.599203 51.599203 0 0 0-103.198405 0zM1117.980072 214.338837a51.599203 51.599203 0 1 0 103.198405 0 51.599203 51.599203 0 0 0-103.198405 0zM86.011998 971.11649a51.599203 51.599203 0 1 0 103.198405 0 51.599203 51.599203 0 0 0-103.198405 0z" fill="#00BB9A" opacity=".15" />
    <path d="M601.812265 723.267734l-32.838761 50.864126s-29.882474 12.032889-2.956288 44.711851c26.910207 32.678962 158.361133 56.760721 242.032061-14.925257 83.670928-71.685978 86.627215-158.361133 74.658245-224.134536a545.970381 545.970381 0 0 0 166.462959-395.103836v-11.457612a618.902793 618.902793 0 0 0-20.086775-152.160919C1011.218141 15.180936 706.480825-74.530406 470.361339 167.501655c-65.789383-12.048869-152.416598-9.012682-224.118556 74.658245s-47.779999 215.041954-14.941237 242.032061 44.727832-2.956288 44.727832-2.956288l50.912065-32.838761L601.812265 723.267734h-0.015979zM852.697209 370.670519c-92.57175 74.674226-167.373815 5.912575-173.28639 0-5.912575-5.912575-74.658246-80.69866 0-173.28639 83.686908-77.614533 167.373815-5.912575 176.258657-2.956288 6.040415 5.912575 74.658246 92.57175-2.972267 176.258658z" fill="#00BB9A" />
    <path d="M317.944741 570.835156l80.71464 80.69866 80.71464 80.73062c8.757003 8.757003 49.058393 4.250662 81.114139-1.038696L319.926253 490.631874c-4.76202 32.567103-9.012682 73.252011-2.077392 80.203282h0.09588z m-86.131837 155.261026l86.643195-86.643195c9.012682-10.227157 9.012682-25.567892 0-35.795049a27.070006 27.070006 0 0 0-35.795049 0l-86.771035 86.643195a27.261765 27.261765 0 0 0 0 35.795049 27.245785 27.245785 0 0 0 35.922889 0z m149.364431-53.692574a27.070006 27.070006 0 0 0-35.79505 0l-128.478658 128.478659c-9.012682 10.227157-9.012682 25.567892 0 35.795049 10.227157 9.012682 25.567892 9.012682 35.795049 0l128.478659-128.478659c8.996702-10.227157 8.996702-25.567892-0.03196-35.795049h0.03196z m23.937939 59.732989l-62.689276 62.705256c-9.012682 10.227157-9.012682 25.567892 0 35.795049 10.227157 9.012682 25.567892 9.012682 35.795049 0l62.689276-62.705256c9.012682-10.227157 9.012682-25.567892 0-35.795049a27.070006 27.070006 0 0 0-35.795049 0z" fill="#00BB9A" />
</svg>