<svg viewBox="0 0 1024 1024" version="1.1" xmlns="http://www.w3.org/2000/svg">
    <path d="M512 0a512 512 0 1 1 0 1024A512 512 0 0 1 512 0z m161.92 390.912H294.208a38.272 38.272 0 0 0-37.76 32L256 429.12v331.904c0 19.008 13.888 34.752 32 37.76l6.208 0.448h379.648a38.272 38.272 0 0 0 37.76-32l0.448-6.208v-30.912l96.96 52.032h4.736a49.664 49.664 0 0 0 49.152-42.88l0.512-6.72V476.992a49.6 49.6 0 0 0-42.88-49.152l-6.656-0.448h-4.8l-96.96 52.032v-50.304a38.208 38.208 0 0 0-38.208-38.208z m-234.752 84.48a39.04 39.04 0 0 1 20.48 3.84l143.616 77.056a31.808 31.808 0 0 1 0 57.728l-143.552 76.992c-8.192 3.84-12.288 3.84-20.48 3.84-20.48 0-36.928-7.68-36.928-30.784V506.24c0-19.264 16.384-30.784 36.864-30.784zM367.616 182.912c-49.92 0-90.56 40.64-90.56 90.56s40.64 90.624 90.56 90.624S458.24 323.392 458.24 273.408c0-49.92-40.704-90.56-90.624-90.56z m234.112 0c-49.92 0-90.56 40.64-90.56 90.56s40.64 90.624 90.56 90.624 90.624-40.64 90.624-90.624c0-49.92-40.576-90.56-90.624-90.56z" fill="rgba(255, 77, 79, .9)" />
</svg>