<svg viewBox="0 0 1024 1024" version="1.1" xmlns="http://www.w3.org/2000/svg">
    <path d="M195.34019 0.24381h585.142858a195.047619 195.047619 0 0 1 195.047619 195.047619v585.142857a195.047619 195.047619 0 0 1-195.047619 195.047619h-585.142858a195.047619 195.047619 0 0 1-195.047619-195.047619v-585.142857a195.047619 195.047619 0 0 1 195.047619-195.047619z" fill="#E5E9ED" />
    <path d="M244.102095 146.529524h487.619048a97.52381 97.52381 0 0 1 97.523809 97.523809v487.619048a97.52381 97.52381 0 0 1-97.523809 97.523809h-487.619048a97.52381 97.52381 0 0 1-97.523809-97.523809v-487.619048a97.52381 97.52381 0 0 1 97.523809-97.523809z" fill="#648CD9" />
    <path d="M244.102095 634.148571h487.619048a48.761905 48.761905 0 0 1 0 97.52381h-487.619048a48.761905 48.761905 0 0 1 0-97.52381z" fill="#79BA38" />
    <path d="M585.289143 244.053333a48.761905 48.761905 0 0 1 48.761905 48.761905v13.165714l58.026666-22.28419a29.257143 29.257143 0 0 1 6.924191-1.706667l3.608381-0.243809a29.257143 29.257143 0 0 1 29.257143 29.257143v158.671238a29.257143 29.257143 0 0 1-39.740953 27.306666l-58.026666-22.28419v13.165714a48.761905 48.761905 0 0 1-48.761905 48.761905h-292.571429a48.761905 48.761905 0 0 1-48.761905-48.761905v-195.047619a48.761905 48.761905 0 0 1 48.761905-48.761905h292.571429z m-195.047619 97.52381a48.761905 48.761905 0 1 0 0 97.523809 48.761905 48.761905 0 0 0 0-97.523809z" fill="#E6B054" />
</svg>