<svg viewBox="0 0 1024 1024" version="1.1" xmlns="http://www.w3.org/2000/svg">
    <path d="M0 0h1024v1024H0V0z" fill="#202425" opacity=".01" />
    <path d="M68.266667 136.533333a34.133333 34.133333 0 0 1 34.133333-34.133333h819.2a34.133333 34.133333 0 0 1 34.133333 34.133333v750.933334a34.133333 34.133333 0 0 1-34.133333 34.133333H102.4a34.133333 34.133333 0 0 1-34.133333-34.133333V136.533333z" fill="#11AA66" />
    <path d="M136.533333 409.6a34.133333 34.133333 0 0 1 34.133334-34.133333h682.666666a34.133333 34.133333 0 0 1 34.133334 34.133333v409.6a34.133333 34.133333 0 0 1-34.133334 34.133333H170.666667a34.133333 34.133333 0 0 1-34.133334-34.133333V409.6z" fill="#FFAA44" />
    <path d="M659.524267 628.872533a17.066667 17.066667 0 0 0 0-28.945066l-223.812267-139.8784a17.066667 17.066667 0 0 0-26.112 14.472533v279.7568a17.066667 17.066667 0 0 0 26.112 14.472533l223.812267-139.8784z" fill="#FFFFFF" />
    <path d="M204.8 170.666667a34.133333 34.133333 0 0 1 34.133333 34.133333v68.266667a34.133333 34.133333 0 0 1-68.266666 0V204.8a34.133333 34.133333 0 0 1 34.133333-34.133333z m204.8 0a34.133333 34.133333 0 0 1 34.133333 34.133333v68.266667a34.133333 34.133333 0 1 1-68.266666 0V204.8a34.133333 34.133333 0 0 1 34.133333-34.133333z m204.8 0a34.133333 34.133333 0 0 1 34.133333 34.133333v68.266667a34.133333 34.133333 0 1 1-68.266666 0V204.8a34.133333 34.133333 0 0 1 34.133333-34.133333z m204.8 0a34.133333 34.133333 0 0 1 34.133333 34.133333v68.266667a34.133333 34.133333 0 1 1-68.266666 0V204.8a34.133333 34.133333 0 0 1 34.133333-34.133333z" fill="#FFFFFF" />
</svg>